/* XPM */
static char *_e29dbe9a3e84c1ece6304c3e7fc9f7eAZv5T1wQmjE62OHr[] = {
/* columns rows colors chars-per-pixel */
"45 64 5 1 ",
"  c None",
". c #EB4200",
"X c DarkOrange",
"o c #FFD400",
"O c #F0EFE8",
/* pixels */
"                                             ",
"                                             ",
"                                             ",
"                                             ",
"                                             ",
"                         ..                  ",
"                        ....                 ",
"                          ..                 ",
"                           .                 ",
"                                             ",
"                 ...                         ",
"                .....   ...                  ",
"                ....   .....                 ",
"                ...     .....                ",
"                ..        ..                 ",
"                                             ",
"                         ...                 ",
"                       ......                ",
"                       ......                ",
"                      ..X...                 ",
"                     ...XX...                ",
"                      ...X...                ",
"                ..     .....                 ",
"               ....     ..X..                ",
"              ..XX..   ..XXX..               ",
"              ..XXX.. ....XXX.               ",
"              ..XXX.. ...XXXX.               ",
"               ..XXX....XXXX...              ",
"                ..XXX..XXXXXX..              ",
"                 XXXXXXXooXXXX.              ",
"                XXXXXXXooooXXXX              ",
"                XXXXXXooooooXoo              ",
"                XooXXooooooXooo              ",
"                 oooXooooooXooo              ",
"                  oooXooooooooo              ",
"                 ooooXoooooooo               ",
"                ooooXoooooooX                ",
"                ooooXooooooo                 ",
"                oooooooooooX                 ",
"                oooooooooooo                 ",
"                ooooooooooooX                ",
"                oooooooooooooo               ",
"                XoooOOOooooooo               ",
"                 ooooOOOoooooo               ",
"                 XoooOOOooooo                ",
"                  ooooOOOoooo                ",
"                  XoooOOOoooX                ",
"                   oooOOOooo                 ",
"                 ooooOOOOOoX                 ",
"                oooooOOOOOoX                 ",
"                oooooOOOOooo                 ",
"                 oooOOOOOoooo                ",
"                 oooOOOOooooo                ",
"                  oOOOOOoooo                 ",
"                  oOOOOOoooo                 ",
"                   oOOOOOoo                  ",
"                   oOOOOoo                   ",
"                    oOOOo                    ",
"                                             ",
"                                             ",
"                                             ",
"                                             ",
"                                             ",
"                                             "
};
