/* XPM */
static char *_3f46cd31bde4b118e55b300073bca2dnmE9DkGDEcv9KB0W[] = {
/* columns rows colors chars-per-pixel */
"59 64 195 2 ",
"   c None",
".  c #000097",
"X  c #00019C",
"o  c #020C9D",
"O  c #0C129C",
"+  c #10149D",
"@  c #17189E",
"#  c #1E1C9F",
"$  c #211D9F",
"%  c #0803A7",
"&  c #1E1DA0",
"*  c #1717A9",
"=  c #201FA1",
"-  c #002CBE",
";  c #0025B3",
":  c #112CB7",
">  c #182EB7",
",  c #0030BF",
"<  c #2422A2",
"1  c #2623A9",
"2  c #3430AC",
"3  c #3D35B1",
"4  c #3226B1",
"5  c #433BB4",
"6  c #493FB5",
"7  c #4438BA",
"8  c #23559C",
"9  c #1845BB",
"0  c #3151A0",
"q  c #254EBB",
"w  c #2650BA",
"e  c #3960A1",
"r  c #4E44B5",
"t  c #5146B5",
"y  c #574CB5",
"u  c #5E52B7",
"i  c #6A5DB9",
"p  c #6559B8",
"a  c #5265B4",
"s  c #6762A7",
"d  c #6E65B6",
"f  c #7A6EBA",
"g  c #7567B9",
"h  c #002DC8",
"j  c #0231C2",
"k  c #0A34C2",
"l  c #0A36CF",
"z  c #1134C5",
"x  c #1235CC",
"c  c #1935CC",
"v  c #002FD1",
"b  c #0332D6",
"n  c #0B37D0",
"m  c #0C38D1",
"M  c #0435DB",
"N  c #1736D2",
"B  c #1937D5",
"V  c #1E38D5",
"C  c #1F39DC",
"Z  c #1C37D8",
"A  c #223ADD",
"S  c #0131E1",
"D  c #0E34E1",
"F  c #1435E1",
"G  c #1B39E1",
"H  c #233AE1",
"J  c #2B3FE1",
"K  c #3B45C9",
"L  c #2F41E1",
"P  c #2642E1",
"I  c #3446E1",
"U  c #3C4CE1",
"Y  c #3849E1",
"T  c #5A4DC3",
"R  c #564AC2",
"E  c #4F51D1",
"W  c #5051D1",
"Q  c #5956D5",
"!  c #5957DA",
"~  c #5155CB",
"^  c #6456CC",
"/  c #6859CF",
"(  c #665BD5",
")  c #4B6BCE",
"_  c #536DCF",
"`  c #4B67D4",
"'  c #7574C4",
"]  c #757BC5",
"[  c #7577CB",
"{  c #737CCA",
"}  c #7567D3",
"|  c #7A77D7",
" . c #767BD1",
".. c #797AD4",
"X. c #7D75DA",
"o. c #414EE1",
"O. c #4B4FE1",
"+. c #4551E1",
"@. c #4E51E2",
"#. c #4753EC",
"$. c #5456E2",
"%. c #5659E2",
"&. c #5B5CE2",
"*. c #5958E6",
"=. c #625DE2",
"-. c #765FE2",
";. c #6660E2",
":. c #6D63E2",
">. c #6F65E8",
",. c #7164E2",
"<. c #7964E2",
"1. c #746AE3",
"2. c #7E6CE3",
"3. c #7B72E3",
"4. c #8172DC",
"5. c #8779D6",
"6. c #836EE3",
"7. c #8571E4",
"8. c #8975E3",
"9. c #857AE3",
"0. c #8E7AE4",
"q. c #8772E9",
"w. c #8973ED",
"e. c #8D78ED",
"r. c #927DE4",
"t. c #937DEA",
"y. c #8B74F0",
"u. c #8D78F5",
"i. c #7081C7",
"p. c #8B84D8",
"a. c #9A8EDC",
"s. c #9588DC",
"d. c #9E94D9",
"f. c #A395DF",
"g. c #A69BDC",
"h. c #ADA1DB",
"j. c #B8ACDC",
"k. c #B3A9DB",
"l. c #BEB0DB",
"z. c #8C82E4",
"x. c #9684E5",
"c. c #9983E4",
"v. c #9F8AE5",
"b. c #9C84EC",
"n. c #A38CE5",
"m. c #A48CEC",
"M. c #A086EE",
"N. c #A790E5",
"B. c #AC94E6",
"V. c #AD94ED",
"C. c #B097E6",
"Z. c #B29AE6",
"A. c #B89FE6",
"S. c #B49AED",
"D. c #A68DF1",
"F. c #B299F0",
"G. c #AFA1E0",
"H. c #BDA4E7",
"J. c #BDA4EA",
"K. c #BAABE7",
"L. c #BEB7E8",
"P. c #BBA0F1",
"I. c #C5B7DD",
"U. c #C9AFE7",
"Y. c #C4ACE8",
"T. c #C3AAEA",
"R. c #CCB3E9",
"E. c #C0B8E9",
"W. c #C8B7E4",
"Q. c #D3B7E7",
"!. c #D0B6E8",
"~. c #D4B9E8",
"^. c #D8BCE9",
"/. c #D3B8E7",
"(. c #C3A9F1",
"). c #CDB4F2",
"_. c #D6BBF2",
"`. c #CFC4DE",
"'. c #D3C5DF",
"]. c #D6C6E0",
"[. c #DEC2EA",
"{. c #DDC0F2",
"}. c #E0C5EA",
"|. c #E6CCEB",
" X c #E8CFEB",
".X c #E4D5EC",
"XX c #EAD1EC",
"oX c #E5D9EC",
"OX c #E9DBEC",
"+X c #E7CCF3",
"@X c #EED4F0",
"#X c #F3D8F5",
"$X c #ECEBEE",
"%X c #F1EFF0",
"&X c #F3F1F0",
/* pixels */
"                                                                                                                      ",
"            4.X.X.X.5.s.x.a.g.h.h.k.j.l.I.'.`.`.I.l.j.k.g.d.d.a.a.p.p.X.X.X.X.                          ~ 9 9 q       ",
"  7.6.6.6.7.w.w.w.w.b.D.D.V.P.(.(._._._.+X#X#X#X+X{._.).(.P.F.V.m.b.t.7.q.7.q.q.q.w.w.w.w.q.w.q.q.q.q.w.! h z M w     ",
"  u.6.7.7.6.7.7.7.6.0.c.v.N.Z.H.T.U.!.Q.}.XXXXXX[./.R.U.A.B.B.n.v.c.0.6.7.6.7.7.6.6.7.6.7.6.7.7.7.6.7.7.W j > l       ",
"  y.7.6.7.7.7.7.6.6.t.c.n.N.Z.J.T.R.!._.}.XX X@X[.^.!.U.J.B.B.n.m.c.r.6.7.6.7.7.6.6.7.6.7.7.6.6.7.6.7.7.E - z m       ",
"  7.6.q.^ 3 5 5 5 5 r r r t u u p i i g g f f f g d i p u y y t r r 6 5 5 5 5 5 5 5 5 5 R K K K ( 7.2.7.E - k m       ",
" .w.6.7.T . @ + O + O o o o X X X X X X X X X X X X X X X X o o o o O O + + O + + + O + ; h - - Q q.7.7.W - z m       ",
"{ w.6.7.T o < $ & < < & < = < < < < < < 1 < < = < < < < < = = = = < < & < = = = = = $ $ > k z j Q 7.2.7.E - > m       ",
"[ q.6.7.T o = $ & & # # & & # & & & & & & & * # & & & & & & & & & & & & & & & & & & & = : : k j Q 7.6.7.W , z l       ",
"] w.6.7.~ ; > : : : : : : : : : : : : : : : : : : : : : : : : : : : : : : : : : : : : : c A V b ! 7.2.7.W j > l       ",
"] w.6.8.Q - z k k k k k k k k k k k k k k k k k k k k k k k k k k k k k k k k k k k k k N H H F =.7.6.7.W - z l       ",
"] w.6.7.Q h c z k x x z x z x k z x k z x z z z k z z z x k z z x k z z z z k z x k z k A H H F &.7.6.7.W - z n       ",
"[ q.7.7.Q h c x x x x x x x x x x x x x x x x x N x x x x x x x x x x x x x x x x x x z Z H H F =.7.6.7.E - > n q     ",
"d e.7.7.! v V N N N N N N N N N N N N N N N N N N N N N N N N N N B N N N N N N N B N N C H H F *.7.6.7.E - z m w     ",
"s w.2.7.! b V B B B B B B B B B B B B B B B B B B B B B B B B B B B B B B B B B B B B B C H H F =.7.6.7.E - z n w     ",
"s w.4.7.*.M A C C C C C C C C C C A A A A A A A A A A A A A A H A A A A A A A A A A A A H H H G =.7.6.6.E - z m q     ",
"s w.4.6.*.S H H H H H H H H H H H D F D D D D D D D D D D D D D D D D D D D D D D D D D D D F S *.7.6.7.W - z m       ",
"' y.7.7.( G J J J J J J J J J H @.,.:.-.-.;.:.:.:.-.:.:.-.,.:.,.:.-.,.-.:.,.:.:.,.;.-.,.:.:.:.:.<.6.6.7.W - > m       ",
" .w.6.7.=.H I J J J J J J J I H =.8.6.7.6.6.7.8.7.8.8.7.7.6.7.7.7.7.8.7.7.7.7.7.6.7.6.8.6.8.7.7.7.6.6.7.E - z m       ",
"{ w.6.7.=.I o.I I Y Y I Y I Y J &.7.6.6.6.6.6.6.6.6.6.7.6.q.6.6.6.6.6.6.6.6.6.6.6.6.6.6.6.6.7.7.7.6.6.6.W - z n w     ",
"[ w.6.7.;.U U I I Y Y I I Y Y J =.7.6.6.6.6.6.6.q.6.6.6.6.6.7.7.6.7.6.6.7.7.6.7.q.q.q.w.q.q.w.q.q.8.6.7.W j z m w     ",
"' y.6.7.1.=.=.=.=.=.=.=.=.=.=.=.,.7.6.7.^ 5 6 7 a                                                                     ",
"' e.6.6.2.>.1.,.,.,.,.,.,.,.,.,.<.7.6.7.R . @ *                                                                       ",
"' y.6.6.6.8.8.8.8.8.8.8.8.8.8.8.7.7.6.q.T O < 1                                                                       ",
"[ y.6.6.8.0.0.0.0.0.0.0.8.0.0.8.8.6.6.7.T X * % e                                                                     ",
"[ w.6.6.r.n.v.v.n.c.n.n.n.n.n.n.r.6.6.7.} ^ / / }  .| | X.X.| X.| X.X.X.X.X.X.X.X.X.X.X.X.  X.                        ",
"[ y.6.6.r.B.N.N.N.n.n.n.n.n.N.n.x.2.7.6.7.8.7.6.6.q.e.e.w.w.w.w.w.y.w.y.y.y.y.w.w.w.q.q.w.w.q.7.                      ",
"' y.6.6.c.C.B.B.C.B.C.B.B.C.C.C.c.2.7.6.7.6.6.6.6.7.6.6.6.6.6.6.7.6.7.6.7.6.7.7.6.6.6.6.6.6.7.6.                      ",
"' w.6.6.c.Z.C.C.C.C.C.C.C.C.C.C.c.2.4.6.6.6.4.6.6.6.6.2.6.6.X.6.2.6.6.4.6.6.6.2.4.6.2.6.6.6.6.6.                      ",
"[ w.6.2.n.A.A.A.A.A.A.A.A.A.A.A.Z.B.B.B.B.B.B.B.B.B.B.B.B.B.B.B.B.B.B.B.B.B.B.B.B.B.B.B.t.2.7.7.                      ",
"[ y.6.2.n.T.A.H.H.H.A.H.H.H.H.j.H.H.H.H.H.H.H.H.T.H.H.H.H.H.H.H.H.H.H.H.H.H.H.H.H.H.H.T.v.6.7.6.                      ",
"..y.6.2.N.Y.T.T.T.T.Y.T.Y.T.T.T.Y.T.T.T.T.T.T.T.T.T.T.T.T.T.Y.Y.T.T.Y.T.T.T.T.T.T.T.T.Y.v.2.q.7.                      ",
" .e.6.2.N.W.U.U.U.R.Y.Y.Y.Y.U.U.Y.Y.W.Y.Y.U.U.U.Y.Y.U.U.Y.Y.U.U.U.U.U.Y.Y.Y.W.Y.U.Y.U.W.n.2.q.6.                      ",
" .w.7.2.C.~.R.R.!.!.!.!.!.!.R.!.!.!.!.!.!.!.R.Q.!.!.!.!.!.!.R.!.!.!./.R.!.!.!.!.Q.Q.R./.N.<.7.7.                      ",
" .y.7.<.Z.^.Q./.~.~.!.!.^.^.!.~.^.^./.!./.~.Q.Q.~.~.!.^.^././.~././././.~.~.^.!./././.^.N.<.7.7.                      ",
" .y.7.,.H.}.[.[.[.[.[.[.[.[.[.[.[.[.[.[.[.[.[.}.[.[.[.[.[.[.[.[.[.[.[.[.[.[.[.[.[.[.[.}.B.2.7.7.                      ",
" .y.6.<.J.}.}.[.[.[.[.[.[.[.[.}.[.[.[.}.}.}.}.}.[.[.}.[.}.}.}.}.}.}.}.}.[.[.[.}.}.[.[.}.B.<.7.6.                      ",
" .w.7.<.K.OXXX.X.XoX.XoX.X.XoXoXY.0.c.c.r.x.r.c.x.x.c.c.c.r.r.c.r.c.c.r.x.c.x.c.t.c.c.c.0.6.7.6.                      ",
" .y.7.<.K.OX.XoXoXoXoXoXOXoXoXOXK.,.7.2.6.2.2.2.2.2.2.2.2.2.2.2.6.2.2.2.2.6.2.2.2.2.2.2.6.6.6.6.                      ",
" .e.7.-.E.&X$X$X%X$X$X$X$X$X$X&XE.<.7.7.6.7.7.7.7.7.7.w.q.q.q.7.q.6.6.q.6.7.6.7.q.7.7.q.7.q.q.7.                      ",
" .w.7.,.E.%X$X$X$X$X$X$X$X$X$X$XL.<.7.6.6.6.2.6.X.7.6.7.7.X.7.7.6.7.7.4.7.3.7.7.7.7.4.6.7.7.6.7.                      ",
"{ q.7.6.0.c.x.x.c.c.x.x.x.z.x.x.0.6.6.7.^ < 2 4 a                                                                     ",
"] q.2.6.6.2.2.2.6.6.2.2.2.2.2.2.6.6.6.7.T . # * 0                                                                     ",
"{ y.6.6.6.7.7.6.6.6.6.7.7.7.7.7.6.6.6.6.T @ < 1                                                                       ",
"..y.6.6.6.6.6.6.6.6.6.7.6.6.6.6.7.6.6.7.R . o % 8                                                                     ",
"..y.6.7.:.$.$.$.$.$.$.$.$.! *.$.:.6.6.6.4.5.} / 5.p.a.g.g.g.j.I.I.].].].I.W.    G.f.f.a.a.x.x.0.7.4.4.X.X.4.X.        ",
" .y.6.7.&.P I I I I I I I L I P &.7.6.2.c.B.n.t.b.M.V.S.(.T.R.^.}.@XXXXX|.~.!.R.T.S.V.V.m.M.b.t.e.w.w.q.q.6.q.q.      ",
" .y.6.q.;.Y E o.O.o.o.o.o.o.o.o.=.8.6.6.x.n.c.0.t.c.N.B.A.H.U./.[.XXXXXX[.Q.R.U.J.B.B.n.v.r.r.r.q.6.7.7.6.6.6.7.      ",
" .y.6.7.;.U W +.+.+.+.+.+.+.+.U =.8.6.6.r.B.x.0.c.x.N.C.A.H.U./.[. X.X+X[.Q.R.U.H.C.B.n.v.c.t.r.7.7.4.6.7.6.6.q.      ",
" .w.6.7.:.$.*.$.$.$.%.*.%.%.%.%.&.;.=.:.:.1.1.;.:.:.1.1.3.3.3.9.9.z.z.z.9.9.9.3.3.1.1.1.1.1.:.;.:.;.;.=.1.7.6.7.      ",
" .y.7.7.,.%.&.&.&.&.&.*.&.&.%.%.%.*.%.%.! *.$.*.*.%.*.$.$.$.@.@.@.@.@.W @.@.@.$.@.%.$.$.$.$.%.$.%.%.%.%.,.7.6.q.      ",
"..e.6.6.2.=.:.;.:.;.:.:.:.;.:.:.:.:.:.:.;.:.:.>.:.;.:.:.:.:.:.:.:.:.:.:.,.;.:.:.:.:.:.:.:.;.:.:.:.:.:.;.<.7.6.q.      ",
" .y.6.7.2.:.,.,.:.,.,.,.,.,.,.,.,.,.,.,.,.,.,.,.,.:.,.,.,.,.,.,.:.,.,.,.,.,.,.,.:.,.,.,.-.,.,.,.,.,.,.,.<.7.6.q.      ",
"| y.7.6.2.2.6.2.6.6.2.6.6.2.2.2.2.6.2.2.2.2.6.2.7.2.2.2.2.2.2.6.2.2.6.3.2.6.2.6.2.3.2.6.6.6.2.2.6.6.2.6.6.6.6.q.      ",
"..y.7.6.7.7.6.7.6.6.6.6.6.6.6.6.6.6.6.6.6.6.6.6.7.7.6.7.7.7.7.7.6.6.6.6.6.6.6.6.6.6.6.6.6.6.6.6.6.6.6.6.6.6.6.7.      ",
"..y.6.6.q.0.8.0.0.0.8.0.0.0.0.0.0.0.0.8.0.0.0.0.0.8.0.8.0.8.0.8.0.8.0.0.8.0.0.0.0.0.0.0.8.0.0.0.8.0.0.0.7.7.7.q.      ",
"..y.6.6.8.0.0.0.0.0.r.r.0.r.r.r.0.t.0.0.0.0.0.0.r.r.r.r.t.0.0.0.r.0.r.0.r.r.0.r.0.t.0.0.t.0.r.0.0.r.r.r.q.6.7.7.      ",
"..w.6.6.0.c.c.x.c.r.c.c.r.c.c.r.c.c.c.c.c.c.c.c.r.c.r.c.x.c.x.x.c.c.c.c.t.c.r.x.c.x.c.x.x.c.r.n.c.c.r.r.8.6.6.7.      ",
"..w.6.6.0.v.x.v.c.c.c.c.c.c.c.c.x.x.v.x.c.c.c.v.c.b.c.c.v.c.x.v.c.c.c.c.r.n.c.c.x.x.b.x.c.v.s.r.c.c.c.v.0.6.6.2.      ",
" .y.6.6.t.n.m.n.N.m.n.n.n.n.N.n.n.n.n.n.n.n.n.n.n.n.n.n.n.n.n.n.n.n.n.n.n.n.n.n.n.n.n.f.n.n.n.n.n.n.n.n.r.6.7.7.      ",
" .y.2.2.z.N.v.f.v.v.v.v.n.n.n.v.f.v.v.v.v.v.v.v.n.n.n.v.f.v.v.v.v.v.v.n.n.n.n.n.f.v.v.v.v.v.v.N.n.v.v.n.0.2.2.3.      ",
"_ *.$.$.&.&.%.%.&.&.&.&.&.&.&.&.&.&.&.&.&.&.&.&.&.&.&.&.&.&.&.&.&.&.&.&.&.! &.&.&.&.&.&.&.&.&.&.&.&.&.&.%.$.$.%.      ",
") #.U +.+.U #.U U #.+.U +.U U +.U +.+.U U +.U U U +.+.U U +.+.U U +.+.U U +.U U U U U +.U U +.U U U U E o.+.+.#.      ",
") #.+.+.#.U E #.U E +.+.+.+.+.+.+.+.+.+.+.+.+.#.E +.+.+.+.+.+.+.+.+.+.+.+.+.+.+.! +.+.+.+.+.+.+.+.+.#.U +.+.+.#.`     "
};
