/* XPM */
static char *_d01e1a5e82940b3fac3876636efa8f9CFX2B7f86KVM1NpE[] = {
/* columns rows colors chars-per-pixel */
"64 64 203 2 ",
"   c None",
".  c #010100",
"X  c #0B0606",
"o  c #0B0907",
"O  c #00000E",
"+  c #0B050C",
"@  c #0D0C0C",
"#  c #110F0E",
"$  c #100C07",
"%  c #13110E",
"&  c #18130D",
"*  c #0E0611",
"=  c #0D0917",
"-  c #040C1D",
";  c #06041B",
":  c #120B14",
">  c #140C14",
",  c #141413",
"<  c #1B1514",
"1  c #15141C",
"2  c #19151C",
"3  c #1B1A1B",
"4  c #191816",
"5  c #231D1B",
"6  c #27221D",
"7  c #37261C",
"8  c #0D1221",
"9  c #161720",
"0  c #161922",
"q  c #1A1B24",
"w  c #1C1E29",
"e  c #181924",
"r  c #241E23",
"t  c #291F21",
"y  c #1E212B",
"u  c #242124",
"i  c #23242B",
"p  c #2B2A2E",
"a  c #302623",
"s  c #352B27",
"d  c #3C322B",
"f  c #232630",
"g  c #2A2B32",
"h  c #322F35",
"j  c #343235",
"k  c #3A393C",
"l  c #353537",
"z  c #422E21",
"x  c #493A2D",
"c  c #4D3325",
"v  c #473C36",
"b  c #3F403F",
"n  c #48443C",
"m  c #554632",
"M  c #55473F",
"N  c #614C3A",
"B  c #6A4F35",
"V  c #77543D",
"C  c #3F3D41",
"Z  c #464543",
"A  c #4D494A",
"S  c #504946",
"D  c #54524F",
"F  c #555553",
"G  c #5D5C5B",
"H  c #6A574A",
"J  c #645B57",
"K  c #64625E",
"L  c #6E6557",
"P  c #7A6A5F",
"I  c #726458",
"U  c #636261",
"Y  c #6B6A68",
"T  c #766C65",
"R  c #7B6E65",
"E  c #7D7672",
"W  c #7C7975",
"Q  c #7B7B78",
"!  c #856753",
"~  c #817058",
"^  c #94745A",
"/  c #927057",
"(  c #A47E5B",
")  c #887C6C",
"_  c #917E6E",
"`  c #8A7E74",
"'  c #81817E",
"]  c #878277",
"[  c #928576",
"{  c #9A8B7C",
"}  c #90867D",
"|  c #A08365",
" . c #AA8E73",
".. c #A38E7A",
"X. c #A4937D",
"o. c #AC9379",
"O. c #B39373",
"+. c #B79D7E",
"@. c #BDA27E",
"#. c #868583",
"$. c #8D8681",
"%. c #8C8A87",
"&. c #8E8988",
"*. c #948C86",
"=. c #938D8A",
"-. c #92918D",
";. c #9D948C",
":. c #9C9082",
">. c #9E9A97",
",. c #9F9E9B",
"<. c #A39484",
"1. c #AA9784",
"2. c #AF9F8E",
"3. c #B49E88",
"4. c #A69D94",
"5. c #AC9F92",
"6. c #A39E9C",
"7. c #B2A18C",
"8. c #BAA58D",
"9. c #BDA88F",
"0. c #ACA396",
"q. c #ADA49C",
"w. c #A5A29A",
"e. c #B4A594",
"r. c #BDAB95",
"t. c #B3A699",
"y. c #B6AB9B",
"u. c #BBAE9D",
"i. c #B8A590",
"p. c #BEB09F",
"a. c #ABA9A4",
"s. c #ACADA9",
"d. c #A8A7A2",
"f. c #B5ADA3",
"g. c #BAAFA2",
"h. c #BCB1A3",
"j. c #BBB4AC",
"k. c #BCBAB3",
"l. c #BFBFBB",
"z. c #B8B5B1",
"x. c #C3AB8D",
"c. c #C9B08A",
"v. c #C1AD93",
"b. c #C0AF98",
"n. c #C4B39C",
"m. c #CAB79E",
"M. c #CBB699",
"N. c #C3B6A3",
"B. c #C6B8A5",
"V. c #CBBBA4",
"C. c #C2B7A9",
"Z. c #C3BAAB",
"A. c #C9BDAB",
"S. c #C3BDB3",
"D. c #C3BFBA",
"F. c #C8BEB1",
"G. c #CFC09F",
"H. c #CDC1AE",
"J. c #D3C3AC",
"K. c #D6C6A9",
"L. c #CCC3B4",
"P. c #C4C1BB",
"I. c #CBC5BB",
"U. c #CEC9BD",
"Y. c #C7C0B7",
"T. c #D2C6B3",
"R. c #D3CAB7",
"E. c #D3CCBC",
"W. c #DBD2BC",
"Q. c #CAC7C3",
"!. c #CCCAC4",
"~. c #CECECA",
"^. c #D2CEC4",
"/. c #D0CFCB",
"(. c #D6D1C5",
"). c #D9D3C5",
"_. c #D5D3CB",
"`. c #DAD6CB",
"'. c #DDD9CD",
"]. c #D8D7D2",
"[. c #DCDAD2",
"{. c #DFDFD9",
"}. c #D7D6D0",
"|. c #E2DCCD",
" X c #E2DED3",
".X c #E5E1D6",
"XX c #E5E2D9",
"oX c #E6E5DE",
"OX c #E3E2DA",
"+X c #EAE7DF",
"@X c #E9E5DC",
"#X c #ECE8DC",
"$X c #EAE8E1",
"%X c #ECEAE2",
"&X c #EDEDE6",
"*X c #ECEBE4",
"=X c #EBEBE5",
"-X c #F0EEE5",
";X c #F0EFE9",
":X c #F1F1EA",
">X c #F3F3ED",
",X c #F8F9F3",
"<X c #F7F7F1",
/* pixels */
"                                                                                                                                ",
"                                                                                                                                ",
"                                                                                                                                ",
"                                                                                                                                ",
"                                                                                                                                ",
"                                                                                                                                ",
"                                                                                                                                ",
"                                                                                                                                ",
"                                                                                                                                ",
"                                                                                                                                ",
"                                                                                                                                ",
"                                                                                                                                ",
"                                                                                                                                ",
"                                                                                                                                ",
"                                                                                                                                ",
"                                                                ,                                                               ",
"                                                          , . . . . . . @                                                       ",
"                                                      @ . . #.d.s.s.s.-.. .                                                     ",
"                                                  . . . ' l.=X,X<X<X,X:XP.U . ,                                                 ",
"                                                @ . Y P.oX-X&X=X&X;X=X;X<X].' . #                                               ",
"                                              4 . ' OX;X%X.XXX$X$X%X%X-X-X>X&X-..                                               ",
"                                            @ . j Q.&XOXXXOX.XOX X|..X+X%X%X>X$XQ .                                             ",
"                                          . , . -.=X X|.[. X X[.[. X.X.X@X@X&X;X_.D .                                           ",
"                                          @ . U ].$XOX[.].[.'.).W. XXX.XXX.XoX$X:Xl.. .                                         ",
"                                        . , . S.oX[.].`.(._.).'.W.'.{.|..X.XoXoX#X-X,.. 4                                       ",
"                                      . 4 . Q `.`._._._.(.R.(.].].(._.`.`.[.{.OX.X#X{.Y .                                       ",
"                                      , . D Y.|.^.^.(.^.^.R.^._.^.R.E.E.(.(.'.'.XXoX-XQ.u .                                     ",
"                                    @ . b Y.'._.(.^._.^./././.!.E.!.R.U.U.(.(.[.[.XX*X*X-.. ,                                   ",
"                                    @ . >. X).^.^.^.~.~.!.Y.F.A.Y.I.H.I.R.I.^.}.'.{.XX%X].Z .                                   ",
"                                  % . W [.'.^.R.U.U.!.Q.P.Z.b.C.Z.F.P.!.I.H.I.(.(.`.[.oX&Xa.. 3                                 ",
"                                  X o S.[.}.^.^.!.!.S.C.h.h.g.j.j.j.P.D.S.B.H.~._.(.).`.+X[.U .                                 ",
"                                4 . -.'.`.[.}.S.f.a.t.<.<.<.=.=.:.} $.$.*.=.-.%.#.0.L.W.[.;Xk.. .                               ",
"                                . J I.`.^.^./.Q g k k l l l i f j g i q i y y 2 O S h.`.[.@X%X%..                               ",
"                              , . 6.|.T.F.F.D.U ; g q e y f y e e 0 e 1 1 1 1 i j h 0._.`. X+X].F .                             ",
"                            @ . U /._.E.F.F.g.G w g u y y i 2 1 0 y y w y 0 y i g i 4._._.'.|.+Xz..                             ",
"                          X . 6 h._.^.^.I.B.d.A - 0 1 q 1 0 0 0 e e y w 1 0 i i i . :.!._.[.[.@X_.l .                           ",
"                          o . D R.^.U.I.S.S.4.v - q 0 1 0 0 1 1 e q w q y i i i y = { A.~.].[. X.Xq.. %                         ",
"                        . # . w.^.^.^.Y.C.j.>.C 8 q 1 1 e 0 0 y e q e y y q y u 0 s 6.S.I.^.(.`.[. X' .                         ",
"                        # . K T.T.L.F.Y.S.g.=.k w i 0 0 0 1 e q 0 1 1 1 2 0 q 1 9 s ;.k.Y.I.E.E.).|.S.p .                       ",
"                      o . i y.J.V.V.Z.F.S.z.&.g w q q i 0 e 0 e e 1 0 0 q q q 0 r - ` j.C.L.^.E.(.'.XXW . ,                     ",
"                      @ . v u.J.A.V.N.C.Z.z.$.i q w f y 0 0 0 y 0 0 y y w w w g f O E j.C.A.U.T.R.`.|.f.4 .                     ",
"                      & . L B.F.A.Z.B.C.h.f.$.h 0 q y y w q 0 1 1 e f y w r w y i . E f.h.Z.A.A.R.W.).).Z .                     ",
"                      < . [ T.A.B.V.N.b.u.t.` t 1 1 q q w 0 1 1 1 y y 0 q q 9 1 r . T q.g.g.N.c.K.T.W.).] . #                   ",
"                      % . } J.V.B.v.b.u.u.2.` a = 1 1 1 1 9 1 = 1 0 y 0 9 9 q q q . I <.y.9.N.x.c.H.E.K.) . $                   ",
"                      & . _ V.n.b.v.8.i.g.5.) p * 2 > 1 1 1 1 1 1 1 1 > 1 2 2 q q O P X.3.8.b.B.M.M.K.K.n . @                   ",
"                      & . ! M.v.v.x.3.i.t.<.R t > 2 2 > > : : : : 1 1 1 2 0 2 3 r O I 1.7.i.v.n.n.m.K.X.@ . .                   ",
"                        . m o.8.9.i.3.q.5.{ T t + 2 > > : : : > : : : 1 1 1 3 q q O H :.1.r.8.+.8.x.@.m . $ .                   ",
"                        . . H (  . ....._ R J > * > : * * * = * = @ : * * > > > < O S _ ..o. .O.O.| B . . .                     ",
"                          . . 6 x x x v d 7 6 X # < < $ + X X + + + + + + + * * > O x H ! / ^ ^ V c . . .                       ",
"                            X . . . . . . . . . . . . . . . . . . . . . . X . . . . # 7 z c N z . . X .                         ",
"                                . X X . . . . . . . . . . . . . . . . . . . . . . . . . . . . . .                               ",
"                                    . .       . . . . . . . . . . . . . . . . . . .   . X . o                                   ",
"                                                                                                                                ",
"                                                                                                                                ",
"                                                                                                                                ",
"                                                                                                                                ",
"                                                                                                                                ",
"                                                                                                                                ",
"                                                                                                                                ",
"                                                                                                                                ",
"                                                                                                                                ",
"                                                                                                                                ",
"                                                                                                                                ",
"                                                                                                                                "
};
