/* XPM */
static char *ff40f5a951744777cb64b3d79ea9db20bGc50nmEse9LT5yO[] = {
/* columns rows colors chars-per-pixel */
"64 64 241 2 ",
"   c None",
".  c #040000",
"X  c #1C0B06",
"o  c #390B00",
"O  c #000B27",
"+  c #072B39",
"@  c #183338",
"#  c #293B38",
"$  c #363937",
"%  c #2B2F2C",
"&  c #3B2A1A",
"*  c #492804",
"=  c #572E0C",
"-  c #50321F",
";  c #6B3705",
":  c #763906",
">  c #693B16",
",  c #6F2A0B",
"<  c #53342F",
"1  c #723230",
"2  c #521821",
"3  c #26423C",
"4  c #374D3E",
"5  c #754D0B",
"6  c #4E4736",
"7  c #754E2D",
"8  c #1C3744",
"9  c #172B5B",
"0  c #243C46",
"q  c #293554",
"w  c #2E3768",
"e  c #1F414A",
"r  c #2C4A44",
"t  c #294746",
"y  c #384849",
"u  c #37574A",
"i  c #2A4A55",
"p  c #374B56",
"a  c #2E524C",
"s  c #2C4667",
"d  c #374869",
"f  c #3A5469",
"g  c #394A76",
"h  c #3C5676",
"j  c #464B48",
"k  c #46594B",
"l  c #475753",
"z  c #565957",
"x  c #4F524F",
"c  c #675D48",
"v  c #6F5C53",
"b  c #4B6557",
"n  c #586959",
"m  c #576C54",
"M  c #6A644B",
"N  c #776949",
"B  c #6A6653",
"V  c #717057",
"C  c #44566A",
"Z  c #455375",
"A  c #42547C",
"S  c #495A78",
"D  c #454E77",
"F  c #4C6265",
"G  c #566767",
"H  c #4B6378",
"J  c #57687B",
"K  c #6A6665",
"L  c #6B7666",
"P  c #636C76",
"I  c #766976",
"U  c #697377",
"Y  c #777778",
"T  c #7A7464",
"R  c #664E70",
"E  c #863904",
"W  c #8E3504",
"Q  c #854703",
"!  c #875312",
"~  c #915310",
"^  c #AC530B",
"/  c #89650D",
"(  c #88661B",
")  c #986B17",
"_  c #9C6B0D",
"`  c #AA7614",
"'  c #8D552F",
"]  c #AF5825",
"[  c #987625",
"{  c #8F6E2B",
"}  c #A57927",
"|  c #AD6E32",
" . c #D15307",
".. c #F65D04",
"X. c #E35200",
"o. c #C86218",
"O. c #D0650F",
"+. c #ED6906",
"@. c #C7692B",
"#. c #ED6B24",
"$. c #8F5B4E",
"%. c #856B4A",
"&. c #94774E",
"*. c #AE754D",
"=. c #887864",
"-. c #8D766C",
";. c #A87967",
":. c #D37154",
">. c #E47C4B",
",. c #778479",
"<. c #AB850B",
"1. c #B88A1C",
"2. c #AC8A18",
"3. c #B69726",
"4. c #AA8637",
"5. c #B28B2D",
"6. c #BBA12E",
"7. c #C29217",
"8. c #E9930F",
"9. c #CA9D27",
"0. c #D09131",
"q. c #F39A33",
"w. c #C4A539",
"e. c #D7A83C",
"r. c #D6B33C",
"t. c #E9A539",
"y. c #F5AE3A",
"u. c #B1924D",
"i. c #908673",
"p. c #AB906C",
"a. c #BDA46B",
"s. c #9E8043",
"d. c #C98756",
"f. c #D49348",
"g. c #EB964D",
"h. c #C7A946",
"j. c #D5B64A",
"k. c #D9AA56",
"l. c #CFB554",
"z. c #D3B956",
"x. c #CCAC4C",
"c. c #F6A847",
"v. c #F4B557",
"b. c #EBAE4C",
"n. c #D19474",
"m. c #D5AB67",
"M. c #D5B469",
"N. c #CBB57A",
"B. c #D6B876",
"V. c #CAB26B",
"C. c #EAB26E",
"Z. c #EB996B",
"A. c #D4C15C",
"S. c #D4C076",
"D. c #D2C16A",
"F. c #FAC152",
"G. c #3D458C",
"H. c #48498B",
"J. c #475984",
"K. c #4A4D99",
"L. c #535E8E",
"P. c #4E6484",
"I. c #566886",
"U. c #596C8D",
"Y. c #677688",
"T. c #777989",
"R. c #6E7B94",
"E. c #4C55A2",
"W. c #666FA5",
"Q. c #837A87",
"!. c #88788C",
"~. c #857FA7",
"^. c #7A8686",
"/. c #788696",
"(. c #728593",
"). c #7489A0",
"_. c #85888B",
"`. c #958D89",
"'. c #858B96",
"]. c #87949A",
"[. c #959596",
"{. c #90908E",
"}. c #AB9689",
"|. c #97A596",
" X c #B1A796",
".X c #8A97A3",
"XX c #989BA7",
"oX c #979CB6",
"OX c #8D88AD",
"+X c #A49BAC",
"@X c #9BA5B4",
"#X c #98A4B7",
"$X c #9AA9AE",
"%X c #A5A9A5",
"&X c #BCB8A8",
"*X c #A3A9BB",
"=X c #B5B9BD",
"-X c #AAB0B1",
";X c #CCB989",
":X c #D3B888",
">X c #CBBA96",
",X c #D0BA92",
"<X c #CEA787",
"1X c #E8B28E",
"2X c #C6BBB1",
"3X c #E8B7B2",
"4X c #BCC4BA",
"5X c #CBC59A",
"6X c #D7C596",
"7X c #CCC489",
"8X c #E4C48C",
"9X c #E3C69F",
"0X c #C9C4A7",
"qX c #D3C6A7",
"wX c #C6C9BA",
"eX c #D2CCB9",
"rX c #F1CCAA",
"tX c #A7ADC4",
"yX c #ADB6C7",
"uX c #B6B6CA",
"iX c #BCBCD4",
"pX c #B4B5D0",
"aX c #9DA9C0",
"sX c #C4BAC8",
"dX c #C5BDD3",
"fX c #BDC6C8",
"gX c #BCC8D2",
"hX c #C7CAC6",
"jX c #C8D2CD",
"kX c #D2D6CE",
"lX c #C7C8DA",
"zX c #C4D3D3",
"xX c #CBD3DC",
"cX c #C9D9DA",
"vX c #D4D9DA",
"bX c #CACCE1",
"nX c #CBD4E3",
"mX c #D2D4E5",
"MX c #D3DAE5",
"NX c #E6E7F0",
"BX c #DBE2E3",
/* pixels */
"                                                                                                                                ",
"                                                                                                                                ",
"                                                                                                                                ",
"                                                                                                                                ",
"                                                                                                                                ",
"                                                                                                                                ",
"                                                                                                                                ",
"                                                                                                                                ",
"                                                                                                                                ",
"                                                                                                                                ",
"                                              I ^.                                                                              ",
"                                          K Y y j L                                                                             ",
"                                        %Xj x $ $ j $ G j z                                                                     ",
"                                        `.< z 6 j j $ $ % % y G ,.                  [.XXU U Y                                   ",
"                                        _.6 z 6 z x x j y # % @ p     _._.    ].].P l p @ O @ '.                                ",
"                                      2X=.6 c c z z z l j y 0 # r G z $ y G U p t @ + + 0 O z                                   ",
"                                       XB B M M B z z z l y r r 3 3 3 3 r @ e a e e e 8 8 + G                                   ",
"                                      %XL V N M K K z z x u u a 3 3 3 3 r r a a i i t 8 8 8 P                                   ",
"                                      &X=.V %.N T B c m k k b u a a r 3 r r 3 a a t i i 8 8 ].              NXmXpXgX            ",
"                                      ,Xu.&.s.s.%.N N M c m m k ,.b u a 3 a a a a a a a @ l               NX*XR.q /.            ",
"                                  9XC.d.d.n.m.n.V.a.p.p.i.T ,.m u b b b r u u u a a u u 3 ,.            NXoXq w d C #X          ",
"                              9XB.C.g.g.C.C.8X8X8X8X6X6X7X5X&X X|.,.,.b ,.b b m u 4 u 4 k %X          vXoXD g H.g s .X          ",
"                          rX1Xf.0.c.c.b.k.m.V.;XN.:X6X7X5XeXeXkXkXwX|.|.,.,.k m ,.b u k ,.          MX'.w S D w g w /.          ",
"                      rX1Xb.8.q.c.q.g.k.M.V.V.N.<X;X,X;X&X5X4XhXjXjXjXcXwX4X|.m m m k ,.            oXd R g D J.g f $X          ",
"                    rXZ.8.t.c.c.g.f.k.M.M.B.B.:X,X,X>X>X5X0XwXwX4X4XfXjXkXkXkX4X,.m ,.            *XD S Z A P.h s J             ",
"                  rXZ.+.y.y.v.v.k.k.m.m.m.M.C.B.:X:X>XqX0X5XwX4X4XjX4X4X4X4XjXkXhX[.            tXY.A P.Z S h G.g J             ",
"                9Xf...q.y.c.v.F.v.k.k.k.k.M.M.V.7XS.N.5X0X4XwXhXjXjXzXjXzXfX4XjXvXjX=X        uXT.S S A S A H h s H #X          ",
"              3X:...+.8.y.c.F.F.b.y.r.e.l.z.D.D.D.D.D.7X7X5X0XhX4XzXzXzXzXzXzXfXhXvXBXBXBXkXhX[.T.Y.I.J.P.A G.h g d .X          ",
"              :.X.#.f.k.g.y.y.c.y.r.t.e.j.j.l.A.A.A.D.S.6X6XeXeXhXjXjXkXzXzXcXzXzXvXMXvXcXMXbXgX].U.H P.S S A G.h w '.          ",
"            :.X...>.n.<Xm.q.t.y.t.t.e.t.e.e.r.j.l.A.A.S.S.6XqXeXhXjXhXlXzXzXzXzXcXcXcXcXlXnXnXbXoXR.H H H C d g g w /.          ",
"          1X ...#.:.x $ p.d.0.9.0.0.9.9.w.r.r.j.l.A.z.M.B.6XqXeXhXhXhXkXxXcXcXgXmXmXxXnXnXxXbXgX#X(.H H S C A h s f .X          ",
"        1X:.....@.$.X . v *.| o.` 7.7.7.9.w.h.h.x.l.z.z.N.7X2XwXhXsXsXlXxXnXnXcXmXmXmXmXmXxXbXgX.X(.H H f C h h s J             ",
"        <XX.#.+.@.$.. . $.| d.f.1.1.<.<.2.6.w.w.h.h.l.l.B.,X3XeXsXsXsXdXdXdXbXbXbXmXbXbXbXlXlXgXaX(.I.P.H C h H s J             ",
"        n.#.#.O.] *.v v *.^ | 6.9.1._ ` 3.3.6.w.w.h.h.V.V.;X0XsXdXsXsXsXpXpXpXpXiXlXiXiXiXiXfXlXyXR.U.P.F f f h i G             ",
"        n.o.O.O. .| ;.;.' ^ _ <.} 2.5.2.3.2.3.6.4.h.w.h.a.a.2X2XdXdXsXpXpXpXpXtXpXyXyXfXpXtXuXuX*X).Y.H H C f f i J             ",
"        ;. .@.] @.] ' ~ E ) / / ) | 4.[ 2.<.2.2.6.4.u.u.a. X X+X=XuXtXtXoXoXaXaXaXtXaXtXyX-XhXuX$X(.J h h f f f i F             ",
"        <X*.^ ^ ] ] W W ~ ( / 5 [ 4.[ } } _ ` <.4.4.u.u.p.i.}.XXXX%X*X@XoXoX#XoX$X@X$X$XyX      =X(.I.I.S Z f h i ^.            ",
"          <X| ^ ^ ~ W W Q 5 5 2.{ 4.{ } } _ _ ` [ 4.[ i.p.`.[.[.XX+XXX@XoXOX.X]..X.X)..X          *XI.U.U.g h h f ].            ",
"              *.^ W W W Q Q 5 5 ( [ 5 / _ _ ~ ) ) { &.&.-._.Q.'.'.[.[..X].'.]./.].^.G (.-X          oXg P.A h h i /.            ",
"                p.$.W ! Q / 5 5 [ 5 ; 5 ) ) Q ! ( { %.=.-.Q.!.!.!.'.[.[.].].'./.^.P F b l n _.      lX/.D D f q F -X            ",
"                    $.: : E 5 5 ! ; ; ! ' ~ : Q 7 { %.=.Y Q.!.!.`.[.[.'._././.(.P.J F u 6 # y         4X(.9 f + U               ",
"                      ;.7 : ; 5 : ; , 5 5 : E : 5 N N T I T.T.!.!.`.`.{._.(.U I.P.P.f u 0 j 0 T.        fX/.p O ,.              ",
"                        p.-.%.> ; : : , ; > > > > 7 7 v K I T.Q.!.[.%X%X[.J I.L.L.P.S p p 0 q _.          nX$X^.$X              ",
"                              ;.' E W E : 5 > = = * 6 c T T._.%X2X        T.L.L.E.E.G.g d q y _.                                ",
"                                }.;.$.' 1 ' < = = = o c `.                  ).K.E.E.G.w w w C                                   ",
"                                      p.-.' ' , ; > * N                     OXK.E.G.K.w 9 O U                                   ",
"                                        +X$.1 1 , , ; 6 =.                  oXH.G.H.G.9 9 P                                     ",
"                                          !.1 1 , ; > * 6                     OXH.w w w ~.                                      ",
"                                          +XI < 1 2 - - X K                     tX/.T.@X                                        ",
"                                            OXR 2 o X X . x                                                                     ",
"                                              OXI v I Y Y                                                                       ",
"                                                                                                                                ",
"                                                                                                                                ",
"                                                                                                                                ",
"                                                                                                                                ",
"                                                                                                                                ",
"                                                                                                                                ",
"                                                                                                                                ",
"                                                                                                                                ",
"                                                                                                                                ",
"                                                                                                                                ",
"                                                                                                                                ",
"                                                                                                                                ",
"                                                                                                                                "
};
