/* XPM */
static char *_a81796c3d114eda81138a3803e7ea49rIGGuXVbmnfHpMNm[] = {
/* columns rows colors chars-per-pixel */
"64 64 146 2 ",
"   c None",
".  c #020046",
"X  c #02004B",
"o  c #030055",
"O  c #03005C",
"+  c #040164",
"@  c #0D0E66",
"#  c #04006A",
"$  c #1B1A67",
"%  c #1C1C6D",
"&  c #060072",
"*  c #0E0F73",
"=  c #17177B",
"-  c #1E206D",
";  c #22226A",
":  c #2B2A6F",
">  c #242572",
",  c #2A2A74",
"<  c #252479",
"1  c #2E2E79",
"2  c #353573",
"3  c #383771",
"4  c #373877",
"5  c #3C3D76",
"6  c #33327B",
"7  c #37397B",
"8  c #3D3E7B",
"9  c #403F7C",
"0  c #43437A",
"q  c #48477F",
"w  c #4D4E7D",
"e  c #353586",
"r  c #3B3B81",
"t  c #373789",
"y  c #3D3C8C",
"u  c #424283",
"i  c #484785",
"p  c #484986",
"a  c #464688",
"s  c #46488E",
"d  c #4C4C8C",
"f  c #4F508E",
"g  c #565783",
"h  c #5A5A85",
"j  c #53548C",
"k  c #5D5D8A",
"l  c #474695",
"z  c #4B4A95",
"x  c #4F5191",
"c  c #555593",
"v  c #585797",
"b  c #575894",
"n  c #5A5A96",
"m  c #55559A",
"M  c #585798",
"N  c #5C5C9C",
"B  c #5F608A",
"V  c #61618A",
"C  c #646492",
"Z  c #696994",
"A  c #63629E",
"S  c #6F7094",
"D  c #767796",
"F  c #75769B",
"G  c #7E7E9D",
"H  c #5655A4",
"J  c #5959A7",
"K  c #5D5CAA",
"L  c #605FA0",
"P  c #605FAE",
"I  c #6364A4",
"U  c #6768A5",
"Y  c #6B6CA3",
"T  c #6564AA",
"R  c #6867A9",
"E  c #6768AA",
"W  c #6B6BAC",
"Q  c #706FA6",
"!  c #706FAD",
"~  c #7E7EA2",
"^  c #7273AD",
"/  c #6E6EB1",
"(  c #6F70B2",
")  c #7373B5",
"_  c #7576B9",
"`  c #7877BA",
"'  c #7778BA",
"]  c #7B7ABC",
"[  c #7B7CC2",
"{  c #807EB8",
"}  c #807EC0",
"|  c #7E80C1",
" . c #81829E",
".. c #8384A3",
"X. c #8D8DAC",
"o. c #9192AD",
"O. c #8C8CBE",
"+. c #9293B4",
"@. c #9B9BB3",
"#. c #9E9EBA",
"$. c #A1A1B6",
"%. c #A4A5BD",
"&. c #A6A8BD",
"*. c #ACACBF",
"=. c #8383C4",
"-. c #8586C9",
";. c #8788CA",
":. c #8B8BCD",
">. c #999AC7",
",. c #8D8ED0",
"<. c #908FD2",
"1. c #8F90D2",
"2. c #9293D5",
"3. c #9D9ED7",
"4. c #9697D9",
"5. c #9798DA",
"6. c #9A9BDC",
"7. c #9FA0C1",
"8. c #ADADC2",
"9. c #ADACCD",
"0. c #AFB0C1",
"q. c #B0B1C2",
"w. c #B1B1C9",
"e. c #BCBCCC",
"r. c #A7A7D0",
"t. c #ACACD3",
"y. c #9D9EE1",
"u. c #9FA0E1",
"i. c #A2A3E4",
"p. c #A7A8E5",
"a. c #ACACE6",
"s. c #A5A6E8",
"d. c #AAAAE8",
"f. c #AFB0E8",
"g. c #B5B5E7",
"h. c #BABAE6",
"j. c #B4B4E9",
"k. c #C3C3D4",
"l. c #CACAD6",
"z. c #C3C4DB",
"x. c #CCCCD9",
"c. c #CFD0DA",
"v. c #D1D1DC",
"b. c #C1C1E7",
"n. c #D4D4E5",
"m. c #DBDBE4",
/* pixels */
"                                                                                                                                ",
"                                                                                                                                ",
"                                                                                                                                ",
"                                                                                                                                ",
"                                                      v.^ -._ +.                                                                ",
"                                                      8.J g.3.d                                                                 ",
"                                                      k.[ d.i.]                                                                 ",
"                                                      9./ y.,.)                                                                 ",
"                                                    l.t W ] _ M Q                                                               ",
"                                                    #.t ^ T / N j                                                               ",
"                                                  @.# d N M N n 6 q                                                             ",
"                                                  + 8 N L / U J c O ..                                                          ",
"                                                o.; M W ` | } ) W 8 0                                                           ",
"                                                % 7 I =.6.5.6.2.( b O X.                                                        ",
"                                              ..$ d ) 5.s.s.s.s.:.I 8 2                                                         ",
"                                              q @ I ` ,.s.g.a.u.| ) c .                                                         ",
"                                              h 6 U | i.g.g.g.f.5.( N +                                                         ",
"                                              k y T ;.a.g.h.h.g.u.) A #                                                         ",
"                                              5 d E :.a.g.b.h.g.u.] I 1 G                                                       ",
"                                            a , c _ 2.f.g.g.g.g.i.=.T d * ..                                                    ",
"                                        k.d I d N ' 1.i.a.g.j.d.y.=./ d N z ..                                                  ",
"                                      x.6 I _ u A ' ,.i.a.g.g.d.y.=./ d M ] e ~                                                 ",
"                                      @.& ^ / u J ' 4.s.a.d.d.d.i.-./ d b ) N <                                                 ",
"                                      6 d L E a N ` -.u.i.y.u.i.4.[ / d M W b 6 F                                               ",
"                                    e.# c U ) 8 d ` =.,.s.-.5.i.=.=.W 6 n ) N 6 h                                               ",
"                                    k.= j s t : M ` =.5.i.=.2.i.:.] W 9 1 y f r Z                                               ",
"                                    k.+ + Z ..3 a ` =.2.1.W ` 5.:.=.U > V ..6 O Z                                               ",
"                                    e.p @.m.  g 1 ( ` 5.:.I ) 5.:._ U o q.  e.~ n                                               ",
"                                              h > T ` 4.:.U ) 5.;./ n O q.                                                      ",
"                                              g - U ` 2.:.T _ 6.-.) n o 8.                                                      ",
"                                              h @ I ` 5.:.I / 5.:.) b X q.                                                      ",
"                                              g + T ` <.2.W ` 5.=.) j . 8.                                                      ",
"                                              F + f ] :.5.-.2.5.;.W 0 # e.                                                      ",
"                                                4 d _ =.6.i.i.<.' W # o.                                                        ",
"                                                0 d ) ` 4.s.i.-._ W # $.                                                        ",
"                                                5 u _ ` 5.f.p.;.' U O @.                                                        ",
"                                                % : R ] 4.f.p.;.) n . @.                                                        ",
"                                                8.% N ] 4.s.i.-.( 7 B m.                                                        ",
"                                                  6 a ( 2.g.p.[ I + +.                                                          ",
"                                                  ; a W ] 3.<.) I # X.                                                          ",
"                                                  O 5 E ] ,.=.) n o  .                                                          ",
"                                                  k ; b [ 2.:.W u + &.                                                          ",
"                                                  l.# c / =.] I < D                                                             ",
"                                                  c.+ f / ) ) T # D                                                             ",
"                                                  x.o 0 N / E x o C                                                             ",
"                                                    X.+ v ) E r 5 k.                                                            ",
"                                                    k.o c W U % h                                                               ",
"                                                    e.. d I N + w                                                               ",
"                                                    x.% 5 N c + F                                                               ",
"                                                      %.+ N a 4                                                                 ",
"                                                      q.# U d 5                                                                 ",
"                                                      *.& W M 0                                                                 ",
"                                                      *.= ` I r                                                                 ",
"                                                    v.n U ` ) x o.                                                              ",
"                                                  c.c m W _ ) U y X.                                                            ",
"                                                v.j W =.( _ ) ) -.l o.                                                          ",
"                                                I _ | ` ` W / ] ] =.H 9.                                                        ",
"                                              n.:.,./ J y A z l T ] ,.r.                                                        ",
"                                              O.K ^ t.7.X.l.8.X.9.>.K P z.                                                      ",
"                                              Y +.e.                8.Y w.                                                      ",
"                                              k.                                                                                ",
"                                                                                                                                ",
"                                                                                                                                ",
"                                                                                                                                "
};
