/* XPM */
static char *_955a66be13f4f52cfbdf6cf43cbf9feyxOo1KIGh8eSvWhK[] = {
/* columns rows colors chars-per-pixel */
"21 40 185 2 ",
"   c None",
".  c black",
"X  c #150600",
"o  c #180000",
"O  c #170D07",
"+  c #250000",
"@  c #260A00",
"#  c #280E00",
"$  c #330000",
"%  c #2B1A0B",
"&  c #2F1C11",
"*  c #341E1C",
"=  c #3E2000",
"-  c #2D2217",
";  c #312310",
":  c #3B3526",
">  c #460700",
",  c #4E1600",
"<  c #651F00",
"1  c #4F2405",
"2  c #542D0E",
"3  c #49301F",
"4  c #563520",
"5  c #593C2A",
"6  c #4E3C3A",
"7  c #653B25",
"8  c #704A00",
"9  c #704D0F",
"0  c #564633",
"q  c #65412A",
"w  c #674F39",
"e  c #614D37",
"r  c #7C553A",
"t  c #7A5838",
"y  c #5D4740",
"u  c #554140",
"i  c #614D49",
"p  c #6D5547",
"a  c #73544D",
"s  c #7B574A",
"d  c #795E4F",
"f  c #5B4462",
"g  c #853900",
"h  c #9B4D09",
"j  c #8B4412",
"k  c #844F2D",
"l  c #8A532C",
"z  c #81582F",
"x  c #8C5E3C",
"c  c #88593A",
"v  c #955F38",
"b  c #965D33",
"n  c #9F6133",
"m  c #A5632E",
"M  c #A2663A",
"N  c #A2683F",
"B  c #A86434",
"V  c #B06C3B",
"C  c #8D5A43",
"Z  c #895C4B",
"A  c #8B5541",
"S  c #816749",
"D  c #876B4E",
"F  c #8A6A4C",
"G  c #976045",
"H  c #946C43",
"J  c #9F6648",
"K  c #98684D",
"L  c #9A6448",
"P  c #816452",
"I  c #9D6D52",
"U  c #937251",
"Y  c #997957",
"T  c #A46C47",
"R  c #A3664E",
"E  c #A46C4D",
"W  c #A06546",
"Q  c #AE7245",
"!  c #A4794C",
"~  c #AE704A",
"^  c #B17243",
"/  c #BE744B",
"(  c #BC7B4D",
")  c #B97746",
"_  c #A76C53",
"`  c #A07951",
"'  c #B67655",
"]  c #BB7653",
"[  c #B97957",
"{  c #86696E",
"}  c #8B6F70",
"|  c #AC7C61",
" . c #C2754C",
".. c #C37D4A",
"X. c #C67D55",
"o. c #A5835F",
"O. c #AF855F",
"+. c #AE885E",
"@. c #AD8456",
"#. c #B0865F",
"$. c #BE825C",
"%. c #B3895C",
"&. c #AC8762",
"*. c #B78F68",
"=. c #B68D68",
"-. c #BB9167",
";. c #BD956C",
":. c #B6926A",
">. c #A28C7E",
",. c #CD824D",
"<. c #C6804D",
"1. c #D2854D",
"2. c #DA8A4E",
"3. c #C48252",
"4. c #CE8753",
"5. c #C88358",
"6. c #C58B5C",
"7. c #D58A56",
"8. c #D38957",
"9. c #CB9052",
"0. c #D5915C",
"q. c #DC935B",
"w. c #DA995F",
"e. c #E29459",
"r. c #C38E69",
"t. c #CF9061",
"y. c #C3996D",
"u. c #C7976A",
"i. c #D79664",
"p. c #DA9964",
"a. c #DE9E69",
"s. c #D69764",
"d. c #CC9B72",
"f. c #C79E73",
"g. c #E39D64",
"h. c #E29F68",
"j. c #DEA16C",
"k. c #CCA074",
"l. c #D4A575",
"z. c #DBA473",
"x. c #DAA974",
"c. c #D6AA7D",
"v. c #DCAC7C",
"b. c #D5A779",
"n. c #E9A167",
"m. c #E5A36E",
"M. c #E9A46B",
"N. c #E6A770",
"B. c #E4AB75",
"V. c #E8AC75",
"C. c #E2AE7B",
"Z. c #E4B17E",
"A. c #EAB27C",
"S. c #F2B078",
"D. c #747A8A",
"F. c #818695",
"G. c #AB998E",
"H. c #B19E91",
"J. c #C3A182",
"K. c #DFAE80",
"L. c #DEB18E",
"P. c #C1A99B",
"I. c #DAB295",
"U. c #EAAE80",
"Y. c #E4B482",
"T. c #EAB682",
"R. c #EBB986",
"E. c #E4B68B",
"W. c #EBBA88",
"Q. c #F0B781",
"!. c #F4BC82",
"~. c #F0BC89",
"^. c #EBBC92",
"/. c #E5BE9B",
"(. c #CAB6A9",
"). c #CCBBBD",
"_. c #E7C1A0",
"`. c #E6C6AC",
"'. c #EBC7AA",
"]. c #EBC7A5",
"[. c #F1CAAB",
"{. c #F2CAA7",
"}. c #EACEBC",
"|. c #DECBC8",
" X c #ECD4C6",
/* pixels */
"                                          ",
"                .         .               ",
"              . x D D F D x o             ",
"            . N n.T.T.T.R.M.) .           ",
"          . M h.Y.Z.Y.Y.Z.Y.N.V .         ",
"          . #.T.v.L.}.E.Z.Y.T.y..         ",
"          . &.~.R.^. XE.Y.W.!.y..         ",
"          . *.x.8 &./.R.+.9 u.d..         ",
"          z @.>.F.u v.T.p D.G.%.H         ",
"        . ;.! H.|.f Y.R.f ).(.H y..       ",
"        . . &.!.y.{ K.T.} ;.!.-.. .       ",
"          . n a.Y.Z.Y.Y.Y.Y.m.V .         ",
"            . n n.Y.Y.Y.Y.M.V .           ",
"        . . g ~ K n.Y.R.M.E T h . .       ",
"      . ` P.I.p.W K r.r.I J 0.L.P.m .     ",
"      l x.{._.V.s.J /  .J t.B./.{.s.-     ",
"    3 w.Z.v.C.Y.Z.g.a.n.g.C.Y.C.Z.v.l     ",
"    ; b.R.C.Y.Y.Z.Y.Z.Y.Y.Y.Y.Y.Y.C.q.q   ",
"    4 v.T.s.a.Y.Y.C.7.B.Y.Z.T.d.' A.Y.w   ",
"  1 ,.Z.S A 8.a.E.v.' 7.C.E.N. .a =.C.e   ",
"  0 B.Y.0.k C 8.e.p.8.] 0.g.3.6 4 8.C.4., ",
"+ ( Z.m.^ . . G ( / 2.4.( X.C 5  .B.Y.A.r ",
"c S.Y.^ .     7 5.y.a.m.5.X.c H S.Y.Y.V.t ",
"= f.;.:     + ~ N.T.Y.Y.m.n.T p K.Y.B...$ ",
"  . . .   . Q M.C.Y.Y.Z.Y.R.:.* d l...@   ",
"          . :.V.q.Y.Z.Y.Y.Y.W.;.. . .     ",
"        . =.Z.Z.k.s q.T.Y.C.[.(..         ",
"        . u.[.`.x.d.Z P | 4.U.J..         ",
"        . 3.R.`.].v.i Z / p.A.;..         ",
"          < 9.]. Xx.a _ p.Z.T.6..         ",
"          . ! ^.'.v.y R v.W.s.j .         ",
"          . B g.Y.l.% W z.~.&..           ",
"          . b a.C.,.& R ,.N.&..           ",
"            . n e.,.O _ [ r .             ",
"            . F A.x...s 5.l .             ",
"            . U W.Y.q.5 ,.M .             ",
"            . U A.p.1.2 b >               ",
"            . Y Q.p.n.5 .                 ",
"              t b.b.k.#                   ",
"                - % X                     "
};
