/* XPM */
static char *d8e47b8182af4f4eb638aebfaef65c36l4oJ156HQnE9hn3m[] = {
/* columns rows colors chars-per-pixel */
"64 64 67 1 ",
"  c #00D8CB",
". c #00D8CC",
"X c #00D9CC",
"o c #00D9CD",
"O c #01DBCE",
"+ c #01DBCF",
"@ c #02DBCF",
"# c #04DBCF",
"$ c #05DBCF",
"% c #06DBCF",
"& c #0ADBCF",
"* c #0BDBCF",
"= c #0CDBCF",
"- c #0EDBCF",
"; c #12DBCF",
": c #13DBCF",
"> c #14DBCF",
", c #16DBCF",
"< c #15DBD0",
"1 c #18DBD0",
"2 c #19DBD0",
"3 c #19DCD0",
"4 c #1ADCD0",
"5 c #1CDCD0",
"6 c #1DDCD0",
"7 c #1EDCD0",
"8 c #21DCD0",
"9 c #20DCD1",
"0 c #21DCD1",
"q c #25DDD1",
"w c #26DCD1",
"e c #28DDD2",
"r c #2ADDD2",
"t c #2BDDD2",
"y c #2FDED2",
"u c #2EDED3",
"i c #2FDED3",
"p c #32DED3",
"a c #34DED3",
"s c #33DED4",
"d c #35DFD4",
"f c #38DFD4",
"g c #39DFD4",
"h c #3CDFD5",
"j c #3CE0D5",
"k c #3DE0D5",
"l c #42E0D6",
"z c #43E0D6",
"x c #42E1D7",
"c c #47E1D7",
"v c #47E2D8",
"b c #48E2D8",
"n c #49E2D8",
"m c #4BE2D8",
"M c #4DE3D9",
"N c #4FE3DA",
"B c #51E3DA",
"V c #51E4DA",
"C c #53E4DA",
"Z c #53E4DB",
"A c #55E4DB",
"S c #56E4DB",
"D c #56E5DC",
"F c #58E5DC",
"G c #5AE6DD",
"H c #5EE6DE",
"J c #5FE7DE",
/* pixels */
"6pdgBNq%&;ojajNNjj;bjo--Ojsooejux%**-oqb4bcbx>qbx0o>ncbjocjo<Oxa",
"bh6opao;%;ox6oqjooopdo<$$j6o<ojV<o***@j0osV$oo-b*o:ohnoooujo**oN",
"-oo%0jo<&oox,-&p<<oeho<o6jO-&-oj*o--oqeo-op4-**q---$qo&;O4x--$4j",
"%<-ojVoo;qjno,oe6%oqV6oobvoO&,ojvOOo-s@*>oepo<-uoOo4V0o,-oj6Ooaq",
"&oopxuxjjj6xuoo3joqjaejjuujqooqxjcgqbn<oo$ox0o-c6qsscx%o#4bB4pjo",
"o6jeOobjOoooje7uFbp-oopqoo$jjjx<oobvejvx06qvVejxvFeooqxjsje4jNxp",
"vj*o:oj6o<<opVp0xbo*>$7jo<$ojVo@4oe0ooojbxq0jN7o<jo$>oeV6ooop6oj",
"suo<<ojuo@-oj0oooq***-oj0@<O4xo--oq0*:*ojpooopo-oqeO:*>ao-==q3oo",
"o0OooovVu<o0uo*-*0>O*:O0vOoo&x3%<Oq0$-<Oj4$*>V7o:*j3Oo6p%-&-q<$-",
"oej<exp0jjjdo-**ojb-O$>ojVs0ogeoOou<ooO4jo:oenxo*onc7ojjo<%opo**",
"$xjjV<ooooxV6OOo4js663ooxdjcgNcjjpbp-60jVqo4eoxjoaj70NVx0oojVoo$",
"veo<j$;;-osuqj0<poo%<ejxsoo qx$Np-4xVjq><jeq--oNNqOooc0$jxjjjj66",
"qO<ojao<oqqooojV4&-&-odbo<<os4op6oo<joo*o<Nqo<ouno3*00o$ojqoo-sN",
"o<*Oeboo%p&&<O4boo<%-%%h*=oqjo$quo--0&*<o,V0o:o0c>oojO--Oq:$<$ox",
"o$:oqFxjNjo-%osNj,o&&<ojeoeb:*$6po-<jo&-ojjx*OojjjjVpo>o:Nuo*-oj",
"j:O$g6,uNjj,&uq&ejj%o&<VVehx<o$-joouNu-o00o0xojjoojV-Ooee3j0o<oj",
"jjjx>oo-poecv-o$OojNjjjcnooOa3oqD6ejOejjjo<o0Vxo-*o0xuVxoOO6eo0x",
"Oouxo<$<q*O*x6o>*<ojb:ooj>&o0Nejxbbo*oob6O--oj<O-*oqNqjn**-ounjo",
"-<ojjo-<q$:O<j$$*-Oe0o>ojeo-3j&ooqjo-<o66O-$0uo-*-Oj0ooepo-*,n&o",
"-o:cb6OOuO::o0jo$<oeq$<Ojjoo30 >-$jOo*O:eoOoeqO<*:oj>*3o30Ooqeo,",
"o6j0OjpuNooO*jAjoooj4oooqpo8xjooo>Nx0oojAjeqNvoo$$ Njo oojVcVboo",
"pj$o-ocNjc0upp:qjjjbj0q0xNxxppxjsj0pbxjju4jVebcq-4xnjeujjjcAejNs",
"xo-<OOc6oxV0Oo% jNq-qNvepNjOoO>Vaoooojjooo*uooejcNuoo0Nu4oOqoouF",
"xoo*ojcoo6xo$:-%q,o*ouqoo6qo>:od*$->oqeo<-<q<-oojco:-oj-oOqp$;oq",
"Ncu:>NuO*<x4%;;&d**=*q6$*<poo::0:**-ovuo<$$jo-:odjo<,oju@ouuo-;o",
"jqjbnn6o<obqoooeho<=o04-o-bjooOqOo:osVjOoojVuo<ojeo%ooujO6b<o&oa",
"oooj7*u-$oxbqdsNNooooxso4upjnpuNs>ojx%0jjueeb4oeNgo0pjNAj4vxq-pc",
"--4po$*u6uj04jv4pjuqqxxxj*Oo>xb0qubjooo-b0oo$bvq<cBjjs0c4oqxqjN;",
"<o6q->-obNooo*jOo>cqOoobqo::oe0o$oj6o--op3&,Ojeoouaoo%opeoqjo:j<",
"$oe$ooooppo,$<u--oj>o<osjo<oqjo--o<j$-<O6;oo0jO:*4u--ooxVo6joojq",
"-qNbju7-j%&-ooj<ooNjo<o6xo-qnn&$--op<ooOnN<ojqO*oop*oujeajbb0>uV",
"jx6ujjxAAeo-<xD-4jjj4@4jVxjuouao$*ojj-ssjxabFq<6uaNjnj,oojFaeqcb",
"qeOoOo$j*jNjaepBj<oOjxe4*xeO*op0<40jVj0:oooxj<xVjd<bjo#<ojjoooj*",
"0qo--$64o6b<oooN<O<oajo*o0qo-*$Nj<<oujo-->Ox4o>jooosjo<o&v6o<ojq",
":qO:**e--ojqo<&j<--Oj6o<o6eO:o0boO*$qjo:*oox::oj0*oejo<o6go<<oqx",
"bpo$ouuO<OqjO<&jOoouVo*-*op-Oojqo<$ojVoO>qjNo<ojxoOqDqooBN<oO<oV",
"jbj6jV6o*<oxqo1n0excxqooOOxj<ajo&o%jcpxjjp0jeo$Ob$qxadxjxjvc-oux",
"ooNVjccuOoOxFpccNV6oOqjjujdejVjeoebdoonjOOoOjs6qVVj-ooejooonVjjo",
">obp o:jNceegN6o>c*$<oqN6oooqeOqbN6o,oj7o<<oxc6qjVo%<;oq0-&ogNo%",
"O-N0O:ooxvOo0bo;opjo<-<0o&<-q<oouuo<<ojaO$o6po$ooj4%-&%4eo,&%j%&",
"*-x3->:o66ooVJ-%:Ojeoo$6:-*-q-**oq%ooobbu,oj<O--oa0o<--Os6o@-x4*",
"ooj*oOoOjjojxjbo-ojVj<uuo*o<eo<-ojj;evj4pjxjo<*-ojV0oO:ojb44*vqo",
"jxNe4eujVVxsoojjojq0uVVxu<ojxo-OonxjV6ooooxV6o--<jjjj*o4s666eAvd",
"pq3jDj06oux@=<obN0ooox6-jVxjju<*aeooj<&;<odjxsooe<oo4j0u&o%o0z0b",
"Ooo,joo%o*e-$>o0xo<*e0oO$c4oo<jV6o-Oejo,ojsooujq6O<-o6Duo;<oh0og",
"6o-;q&--O-V0o*ojbqoojo--:jo*<o:N--*$*j&o0jo*<ojV-o<$<oxpo;ouxooa",
"so<-joo,ojDjo-vssxjxso<O:Vjo-<ov4O<o3AjpDjo<$:jpx*O-<OOxOOqN<*oq",
"jOoeVx6oexo6jbjooo6b6Oo6xucpo:ocj-oOcj,pDje4ojqoec0oo-0VN4ux4@oo",
"NouV>pbxjo*o-Vso-<o-bjvvoOovj ucxxjnqoooj$6jcxo:oqNjujppboOOd6qd",
"jvD0Ooob0o:*Ovba-oo6xqubqo*ocNjo ouxO<-;u*oObjo:-Oonn$ Oj-<o0Njh",
"o0jo*:o0eo:Oqjopjp6j&oo4b6O$>NoO>:ojpo;;p$<oj4o>*:op3o:*6<*Oqjoo",
"<od&*:o7joOopuOo2pgxo&<o4xooueO<*-obV6o%pooqDj*o*-*e>:*$04Ooejo4",
"oeVuoo$jNdueNao-o%ogg&ooojNqcxooo*u0<xhuNjuaejVaoOOjoooO0jo4vxoo",
"xxebjexj36pVpue6;oqBbjjpducN<qj00u-o%obVjNp<ujjuu>ebj780xFxjsupu",
"dooOsFjoooojOo-6xNxeo0Dp<o6soo$vcO*:&-j4 xbq0ooopj3>qbNjebjooo<B",
"o&<ooj4O<<Oj4*-oacoo-ou-#ojeo:O<joO*odjooaxoo&;%e3o$oueooqeo<<oj",
"<-*-oj6o<o-jO--@pdo<;oeeOodqo&-oNcu<-npoo6j***;;eo**&q7$*6joO<-0",
"o@*oubu*o-jb6o<oguo&ooevo0N0o,ojjqjbxAqo<od<ooo&6o<<o33-o<bj<oou",
"j4@us$4jbxq<jOouVg&<0qjGbujj$oqpooovxjuo#ojvqejNjooo,vuo6jpejjeV",
"sjvuo$O4b<oo-jj0,jNxjq:Nqoosvbno->oVeO0j66jq<exphdqsgvjjp:ooovNq",
"ooceo--$6-,-objoo,qoo-ojqO<4jopq$$6N*<o<Nbooo<qoo6beOoOxqo;;os0o",
"<Ojjo-<Oooo&6jo--,q-<ooxV<o<pooq8 ppoo$obqo,%6u-=@h4o>ojjo;odvo;",
"-$*j@$ooxx3oeqo<%op-o0bj6xjqc3%3jxNxeq*jNo;-o%x&ooVxo<o4xo&jNb&o",
"*:ojjojvvbjjV6o*-uVxjvqoopV60NcucNujjjjVD,%&0vB,<bAD6o%jVjxjojvo"
};
