/* XPM */
static char *_c41e99a5e74436bf88978aa1c9e54c4iLUAClvlbc1GFBIl[] = {
/* columns rows colors chars-per-pixel */
"64 46 185 2 ",
"   c None",
".  c #000000",
"X  c #0D0401",
"o  c #00000C",
"O  c #0C0C0C",
"+  c #0F0902",
"@  c #130600",
"#  c #160B02",
"$  c #1D0E00",
"%  c #1B0000",
"&  c #1E1204",
"*  c #1E150D",
"=  c #1F180F",
"-  c #141414",
";  c #1C1612",
":  c #1A1A1A",
">  c #300000",
",  c #211606",
"<  c #271704",
"1  c #341B00",
"2  c #37230D",
"3  c #3A230C",
"4  c #2A221A",
"5  c #000726",
"6  c #151C20",
"7  c #232323",
"8  c #2A2A2A",
"9  c #302820",
"0  c #323232",
"q  c gray24",
"w  c #31393F",
"e  c #421400",
"r  c #482800",
"t  c #5F3600",
"y  c #543B1B",
"u  c #5F3D16",
"i  c #462D14",
"p  c #653400",
"a  c #483D30",
"s  c #5E451E",
"d  c #764500",
"f  c #784700",
"g  c #7B4901",
"h  c #774A09",
"j  c #71500E",
"k  c #70450D",
"l  c #755727",
"z  c #755B37",
"x  c #444443",
"c  c #4B4B4B",
"v  c #525251",
"b  c #5C5B5B",
"n  c #54595E",
"m  c #635440",
"M  c #605F5E",
"N  c #776652",
"B  c #786752",
"V  c #786855",
"C  c #76644E",
"Z  c #5F656B",
"A  c #636363",
"S  c #6C6C6B",
"D  c #65686B",
"F  c #7A6C63",
"G  c #7E7264",
"H  c #737373",
"J  c #7C7C7C",
"K  c #834D00",
"L  c #865203",
"P  c #935B06",
"I  c #9D5E01",
"U  c #975D08",
"Y  c #A05F00",
"T  c #A46300",
"R  c #AA6600",
"E  c #AD6900",
"W  c #A4660B",
"Q  c #A6690D",
"!  c #A9690A",
"~  c #A76807",
"^  c #B16C01",
"/  c #B26E0A",
"(  c #BB7504",
")  c #B5720C",
"_  c #A66913",
"`  c #B47419",
"'  c #86622D",
"]  c #AA752A",
"[  c #A67A37",
"{  c #C67B0A",
"}  c #CA7F11",
"|  c #957C5E",
" . c #827466",
".. c #AE833F",
"X. c #BB8739",
"o. c #D68400",
"O. c #D4850C",
"+. c #DB8A0C",
"@. c #DB8902",
"#. c #CB8013",
"$. c #DB8B13",
"%. c #DD8D19",
"&. c #D58715",
"*. c #E48D00",
"=. c #E48F0E",
"-. c #E59005",
";. c #E8930F",
":. c #E89106",
">. c #E18E13",
",. c #E08F19",
"<. c #E69112",
"1. c #E99414",
"2. c #DD8E26",
"3. c #DD9024",
"4. c #E49C38",
"5. c #E69521",
"6. c #B28641",
"7. c #B48944",
"8. c #BB8D43",
"9. c #BE9049",
"0. c #C39349",
"q. c #C49344",
"w. c #DA9E48",
"e. c #DDA856",
"r. c #E4A244",
"t. c #EDA642",
"y. c #EBAC4C",
"u. c #F1AD4B",
"i. c #EEB045",
"p. c #E4AB54",
"a. c #EAAC50",
"s. c #EEB255",
"d. c #EEB45A",
"f. c #F0B65B",
"g. c #F5BA5C",
"h. c #F8BD5D",
"j. c #F4B753",
"k. c #C5A479",
"l. c #EEB762",
"z. c #EFB868",
"x. c #F8BE61",
"c. c #F0B866",
"v. c #FDC162",
"b. c #F1C17E",
"n. c #848585",
"m. c #8B8B8B",
"M. c #939393",
"N. c #97999A",
"B. c #9B9B9B",
"V. c #AF9A80",
"C. c #A5A5A5",
"Z. c #A9A9A9",
"A. c #B3B3B3",
"S. c #B9B9B9",
"D. c #BDBDBD",
"F. c #C8AB88",
"G. c #CDB18E",
"H. c #D4B894",
"J. c #DFC19D",
"K. c #F2C383",
"L. c #F3C588",
"P. c #E8C79E",
"I. c #F3CB9A",
"U. c #F3C994",
"Y. c #FCD29D",
"T. c #F6D1A4",
"R. c #F6D6AD",
"E. c #F7D5AC",
"W. c #F9D6AC",
"Q. c #FBD8AD",
"!. c #F7D9B2",
"~. c #FBDAB2",
"^. c #FFDFB8",
"/. c #FFE6BC",
"(. c #C3C3C3",
"). c #C0C0C0",
"_. c #C4C4C4",
"`. c #C6C6C6",
"'. c #C9C9C9",
"]. c #CBCBCB",
"[. c #CDCDCD",
"{. c gray80",
"}. c #CECECE",
"|. c #D1D1D1",
" X c #D5D5D5",
/* pixels */
"                                                    : : : : : : : : : : : :                                                     ",
"                                                    . . . . . . . . . . . .                                                     ",
"                                                  H B.M.M.M.M.M.M.M.M.M.M.B.H                                                   ",
"                                        . . . O . n. X].}.}.}.}.}.}.].}.}. XM.. - . . -                                         ",
"                                        8 8 8 0 . n.].).).`.).).).).`.).).].m.. 8 8 8 8                                         ",
"                                    8 . M._.S.S.S.S.C.Z.Z.Z.Z.Z.Z.Z.Z.Z.Z.Z.C.B.B.S.`.B.. 8                                     ",
"                                    . . M.}.`.].}.S.C.C.C.C.C.C.C.C.C.C.C.C.C.C.Z.`. XB.. .                                     ",
"                                    n.J Z.'.`.S.S.A.C.C.C.C.C.C.C.C.C.C.C.C.C.C.C.S.D.B.x b                                     ",
"                              - . v ].}.`.`._.C.C.C.C.Z.C.C.C.C.C.C.C.C.C.C.C.C.C.C.C.N.n.m.q . :                               ",
"                              - . c ).`.`.`._.Z.C.C.C.C.C.C.C.C.C.C.C.C.C.C.C.C.C.C.C.B.J n.q . 7                               ",
"                              7 . v _.`.S.Z.Z.Z.C.C.C.C.C.C.C.C.C.C.C.C.C.C.C.C.C.C.C.B.n.n.q . 7                               ",
"                              . . q _.].A.B.Z.C.C.C.C.C.C.C.C.C.C.C.C.Z.C.C.C.C.C.C.C.N.n.n.0 . .                               ",
"                              S S J _.'.A.C.Z.C.C.C.C.C.C.C.C.C.C.C.C.C.C.C.C.C.C.C.C.B.m.M.b x x                               ",
"                          - . Z.|.'._.`.A.C.C.C.C.C.C.C.C.C.C.C.C.C.C.C.C.C.C.C.C.C.C.C.C.C.m.m.H . -                           ",
"                          - . C.{._.{.}.S.C.Z.Z.C.C.C.C.Z.Z.Z.C.Z.Z.Z.Z.C.C.Z.Z.Z.Z.Z.Z.C.C.m.n.H . X                           ",
"                          - . C.}.D.H H S b A B.C.C.C.Z.H b A A A A b S C.Z.n.b A A b J Z.C.m.n.H . O                           ",
"                          - . C.}.S.. . . . . B.Z.C.C.Z.q . . . . . . 8 C.Z.H . . . . A Z.C.m.n.H . O                           ",
"                          - . C.}.S.7 X q c c M.B.B.Z.C.A x x O O q x b C.Z.H . 7 c q H B.B.n.m.H . O                           ",
"                          - . C.}.S.: . H Z.C.q . S Z.C.C.C.M.. . m.Z.C.C.Z.H . 8 B.Z.n.. : H m.H . O                           ",
"                          - . C.}.S.7 . J A.C.8 . A Z.C.C.Z.M.. . m.Z.C.C.Z.H . 8 C.A.n.. . H m.H . O                           ",
"                          - . C.}.S.: . v H H J J M.C.C.C.C.M.. . m.Z.C.C.Z.H . : S H H J J n.m.H . O                           ",
"                          - . C.}.S.- . . . . C.Z.Z.C.C.C.Z.M.. . m.Z.C.C.Z.H . - . . S A.C.m.n.H . -                           ",
"                          - . C.}.S.- . 7 0 q N.B.C.C.C.C.C.m.. . m.C.B.C.Z.H . - 0 - H Z.C.m.m.H . O                           ",
"                          - . C.}.S.8 . J C.B.c . H C.C.b 7 8 - - 8 8 c C.Z.H . 0 B.B.C.C.C.m.n.H . O                           ",
"                          - . C.}.S.. . J Z.C.: . A Z.C.x . . . . . . 8 C.Z.H . . B.Z.C.C.C.m.n.H . O                           ",
"                          - . C.}.D.H S m.Z.C.H S m.Z.C.J S H H S H S J C.C.m.S H C.C.C.C.C.m.n.H . O                           ",
"                          - . C.}.).Z.Z.Z.C.C.Z.Z.Z.C.C.Z.Z.Z.Z.Z.Z.Z.Z.C.C.Z.Z.Z.C.C.C.C.Z.m.n.H . O                           ",
"                          - . C.}.).C.C.C.C.C.C.C.C.C.C.C.C.C.C.C.C.C.C.C.C.C.C.C.C.C.Z.C.C.m.n.H . O                           ",
"                          - . C.].D.C.C.C.C.C.C.C.C.Z.C.C.C.C.C.C.C.C.C.C.C.C.C.C.C.C.C.C.C.m.n.H . O                           ",
"                          - . C.}.).C.C.C.C.C.C.C.C.C.C.C.C.C.Z.C.C.C.C.C.C.C.C.C.C.C.C.C.C.m.n.H . O                           ",
"                          - . C.}.).C.C.C.C.C.C.C.C.C.C.C.C.C.C.C.C.C.C.C.C.C.C.C.C.Z.C.C.C.m.n.H . X                           ",
"                          - . C.}.D.C.C.C.C.C.C.C.C.C.C.C.C.C.C.Z.C.Z.C.C.C.C.C.C.C.C.C.C.C.m.n.H . O                           ",
"                          - . C.}.).Z.Z.Z.Z.Z.Z.Z.C.C.C.C.C.C.C.C.C.C.C.C.C.C.C.C.C.C.C.C.C.m.m.H . O                           ",
"                          - . C.}.S.M b b b b b v J Z.C.C.C.C.C.C.C.C.C.C.C.C.C.C.C.C.C.C.C.A x x # ; * 4 9                     ",
"                          - . Z.|.S.. . . . . . . A Z.Z.C.C.C.C.C.Z.Z.Z.Z.Z.Z.C.Z.C.C.Z.Z.Z.w . . . . . . .                     ",
"                          - . N.D.Z.V B V B B z j  .B.M.C.C.C.C.C.B.M.M.M.N.M.M.M.C.Z.B.M.M.G N N N V z l l                     ",
"          , , & $ $       , , , . m R.W.W.W.W.z.h.0.. % M.C.C.C.Z.A . * @ @ @ . 4 B.Z.J . . P./.R.R.~.b.j.p., $ , # ;           ",
"          . . . . .       . . . . a R.R.R.W.W.z.g.9.. . N.A.Z.Z.Z.n . . . . . . 5 C.A.n.. . J.Q.R.~.~.b.s.e.. . . . o           ",
"      . 2 8.0.X.^ ) k . l 0.2.k.G.G.E.R.I.b.K.d.f.w.E ) F D S S D V.G.F.q.0.[ ( ` F Z | q.8.P.~.T.K.K.c.s.p.) ) U K K 3 6       ",
"      . & s.v.y.*.1.h . z v.d.Y.^.~.R.~.L.i.s.f.f.y.*.1.p . X . . H./.Q.h.x.t.*.>.e . [ v.g.T.!.I.i.s.s.f.s.<.1.{ ~ R < . 6     ",
"    y y s p.d.r.o.&.h . ' s.y.U.E.T.E.E.K.y.d.s.s.r.o.$.k ; i y > F.W.U.s.s.4.O.&.u . [ g.p.I.!.I.d.f.s.f.a.&.+.{ I Y r 1 3     ",
", . 6.f.p.3.>.#.T R T I / ,.+.y.l.d.d.l.r.@.%.%.%.} T T T I ^ +.+.3.2.2.%.%.( T T T I W ` ) p.g.d.d.d.4.+.&.T T T Y T Y T K o * ",
", . 8.v.g.5.:.O.T R E T ( 1.*.u.g.g.g.x.t.*.>.=.;.O.T R E T ( 1.=.=.*.:.=.;.{ T R R R ^ ( ( s.h.g.g.g.4.*.=.R R R R R R ^ K . @ ",
"# . ' 7.6._ ~ P d g g g K Q T [ 7.6.6.7.] T W W ! U d g g d L W ~ Q _ Q W ~ P d g g d K L L [ 7.7...6.] T W g g g f g f g t . X ",
". + . . . . . . . . . . . . . . . . . . . . . . . . . . . . . . . . . . . . . . . . . . . . . . . . . . . . . . . . . . . . X . ",
". . # , * & $ $ @ @ @ @ @ & $ , , , , , , $ $ $ , $ @ @ @ @ @ $ $ $ & $ $ $ $ @ @ @ @ @ $ # & , , , , , $ & @ @ @ @ @ @ @ @ . . "
};
