/* XPM */
static char *b264fe31a8bd4280c448c5f5f9e463bdHJYPX7QqtugiurzK[] = {
/* columns rows colors chars-per-pixel */
"64 64 71 1 ",
"  c #4E666A",
". c #50676B",
"X c #566E72",
"o c #577074",
"O c #5A7276",
"+ c #5D767A",
"@ c #5F787C",
"# c #60777B",
"$ c #62797D",
"% c #667E82",
"& c #678186",
"* c #688287",
"= c #6B858A",
"- c #6D888D",
"; c #6E8A90",
": c #718D93",
"> c #769196",
", c #779599",
"< c #78959A",
"1 c #7B999D",
"2 c #7E9DA1",
"3 c #819FA3",
"4 c #83A1A5",
"5 c #85A5A9",
"6 c #8AA7AB",
"7 c #87A8AC",
"8 c #89A9AD",
"9 c #8AA9AE",
"0 c #89AAAE",
"q c #8AABAE",
"w c #8CA9AC",
"e c #8EABAF",
"r c #90ACAF",
"t c #8BACB0",
"y c #8DADB0",
"u c #8EACB0",
"i c #8FACB1",
"p c #8FADB1",
"a c #8FAEB1",
"s c #91ADB0",
"d c #90ACB1",
"f c #90AEB1",
"g c #90AFB3",
"h c #93AFB3",
"j c #93B0B3",
"k c #92B0B4",
"l c #94B1B4",
"z c #95B2B5",
"x c #96B2B4",
"c c #98B2B5",
"v c #98B4B7",
"b c #97B5B8",
"n c #99B5B8",
"m c #9CB8BB",
"M c #A6BCBF",
"N c #A6BDC0",
"B c #A9C0C3",
"V c #AAC1C4",
"C c #ABC1C4",
"Z c #ABC2C5",
"A c #AEC3C6",
"S c #B3C3C4",
"D c #B2C5C6",
"F c #B5C6C7",
"G c #B6C7C8",
"H c #B9CACC",
"J c #B9CBCD",
"K c #B9CCCE",
"L c #BACCCE",
"P c #BCCED0",
"I c #BDCED0",
/* pixels */
"ooooOoO+oOOOOOOOOO+OOOOOOOOOO+XXXXOOOoOOOOOoOOOOOOOOOOOOOOOOOo+o",
"1112333469550eeeuut0eu39550e0N# <12440556u04555555550355555550N+",
"22esut9uhdddujhdkuskhhuusdhueC+ 1e0uuuushss0uiiuuuuud0tuusii0sC$",
"2essduddrddhussusisududsusueuC+ 14erutuiuutusit00tusu0udsuii0uC+",
"22ussudueuksluhussiuiuishdudlC+ 13udhuhshuuskueuuusiiuhuhdu0uuK$",
"22usu07990uuudhduuitiutidusdhlX.<3uuuusuuuhesss0uuiu0tudsssueuI$",
"22usu77usedsuhuuutiisiighsuuslO.12uhuuuhdhuhuuudsusuuutuuuhuulK#",
"12usutudsuuhuduhsgiiukisuutuklO 1sduhhduuhuduhuhskihssuuuhdu6ll@",
"22uusuhiuluuhhuukuituuhususulL+ 1uhhuhuusdhususdksduduuhdhsu9ujO",
"22dhsuuuduhuuduhissisiiiussulK# 2uuuuhdskuhudukuuushhhusuu0u0sl+",
"2esuhttuuhuududhuisiihsssds7lI# 1uhuudsdukuduhukdhuuuusuhd9essk+",
"2uuuuuusssuhshuuhiissiiiussdlI# 1uhuksuudsusuhdsuuhduhduuu9esllO",
"296s0uustuksuudhuusssitihsiusK$ 2usskuuhhuuhudsuhsusudhhkiuduuN$",
"2usuu9uuuuuuskuuhuukkuuisisu0lO 1uuehuuhhuuhusduudukhuuuussuutC@",
"12iihusdu00skshuskukusisksii0kO 14uluusduusdsdhhueuhhukshudhdtC@",
"22ukhusdsuuduusduusisisiisiutlO.12eudskudskukuuud00duuuiiuusuuN@",
"22uuhuuuuuuusueu00ussuuuuuue0hO.12uhuhhuiuhuiiusuuusst09796ee0j+",
"12uhud000q00uu60seulihdt00tuslo 12uuuuushuhuhsksesiiuuue9700sqlO",
"22dduhresuust009eusuuuuuusuudhO.12ustuhuuuukiisu00t0ue9u0euer0C+",
"2uhududhkuguu090ulhu0e00sklshbO 1udsudduuhhukiussuuuu000000q0kA#",
"114444444555eq666ut4lhjjklPKPSO <113111145544555550u6345slsslLH+",
"+O++@@O@@@@+@$O@@@+@$$$$@@%%#%OX@+@#++++@@@@++@oO+++$#$+$$$$$*$O",
"44409596e6047e@,345uu0065544554055555e99t54te6sO 111144440eee0wr",
"tusjhuuuusj0eD%<4udsdssskuuhuhhuuhuuur90huutsllO.11uuuusssrrrjsr",
"0uusutuu90eeql$150u00esudsuuusssuiuuhu99uhu0uhlO 23ukisususiksiu",
"0quskuusuehuqu@,29detuuhsu0tdukusgkuuusuiiuhu0lX 2ususikusussuut",
"00isssuuusue0jO119uduuukudueuhuhusihduuuhiuue0j+ 1ussisisuukuuuu",
"00kiuus0kud00j@1290duhsiuuhuuhdukukus00siss9e0lO 1ukisisshsuu9tt",
"0desuq97u6ustk@126eduuui00susihuhduuudusuuudutlO 1uusisusikiduud",
"du60u090usuu0k$1250ds0suerukukduuuhhkuu07u9uuuhO 1uuukikisusdusd",
"0uuest0eusiu0j$1200hudukhdsisuhhuhudsu099udu99hO 1udsikikusisuds",
"9ud0uueusitu0l+<20uuhussessihuuudukusuue99iu9uhO 2uhisusisuksssu",
"ssudukuseuueql@12uiuuuusuhhdhuuususkuuuhuusiiklO 1ssdsuuuhudskud",
"uud9hssu00s0uF$<0uhshhikuduuuuhhksusdhdusesuutl+ 1ssuhshduhuusuh",
"tuhuuudse0ueuG$1usuhudsuhudsdhuuuuudhdsud000u0lO 1usduuhhhuusuuh",
"0uuukiukuejqgG$10isuutsusduhuuhudhhuuuksdu0uunlO.12uhuuduudhksdu",
"usuuu0esu0u0eG$12uuudusuuudhssuulussudsushuutlcO 12dhtushduuusul",
"uuttssu0uss0eG%,2tusuhskskuuddhhuukuhuksuuuu0nlO 12uuudeuuhldueu",
"uheeduuehuseqC$12uhuuuuhhshudeudeseusuuds0ud0llO 10uuduhuhsud00e",
"9uusue90uue0qk@12uhuhduuuehee900tse0006uuedd0hlO 1udhu0eduusudr0",
"00hulu9900eqqk@<3dldd9ehdss0sdsduikuukssqquttnno 1uusiishusshsss",
"5340tu5skskklsO1111344e654555555447llllklllklGD@ 1214443606et6t5",
"OOO+@OO#+++#@OoOOOOOOO+OO#O#++oo+++@@@@@@+$$@$%OX@++@+@+##@#@@#@",
"o%**===-==-=========-=======;>X ,1114744545554575555455440t966N+",
"X*=----->:::----:-------->--->X.12uuukutusksukuiuuiiuuslshsh9uC#",
"X*;--------------->---::--=->=X.12utushuususiiutuuisutuuiuuue0C#",
"X*:------:------=-:-:-;-----:-X.12uiuuudssukiikiiskshusisi9uuuC@",
"X*-----------------------=:--:X.12usdhhuuksiissukiiiukiisiuuetC#",
"X&*----------------:--------->X.13uhuuukduusushuuutuuhu6sudhu0l@",
"X**=--------------------------X.1uushhdshksdsduuhuuhuku0utuuuuC+",
"X&*->=----;:-----------------:X 1uhuudsuuuhukudhuhuuuisuudukulC#",
"o&*-:----------;--=-=------=->X.14ususduuhuuhdukduuhuhhsusssekC#",
"o*==---------:--------------;>X 12useshhdskuhudshuuhudsuuhud6lZ+",
"X*-----=---------------;---=->X.12uu0euusuhduusuhuuhusduudsu0sC#",
"X&;--------------------=----->X 12duuhduusuudhuhuusdsdhhhuuduhC#",
"X&=;----------------=---:----:X.1uuhuuhksduhuhuddskukuuuud00uuC#",
"o&------=-------:-=-------:->>X 1hhuduhudhuudhhuuusuuhhdssuluuC@",
"X*:-:---------=---;---------><X 1duuhusduhuhuuuuhhsdduuuukuuu0C@",
"o&*-:-----------;----=------:<X 12uluhusuusdhdshhuhuteudsituusK$",
"o&&=->::------;-=:----;-------X.12duudukshueuuushudduuutiiuhucK$",
"X&&-:------------;=--::::--=->O.<4rehsusesu000euuuhuusddddrrulL$",
"X&*----:>:------;::;-;;-----:<X.12eeudskdhluddslhuuhsslusrrclnL$",
"X%&====-=-=-;;--=---==-==-<>>>X ,121444uee0e554d0uuuuee0lscLLLcO",
"XXXoXXXXoXooooooXXXXXXXXXOoooOXXOXOOOOoXOOOOOOOOOOOO+oXOO+#$#$OX"
};
