/* XPM */
static char *_e18c43a052a4867f108df9077edba4eC9goJWVP2Cqn03Ti[] = {
/* columns rows colors chars-per-pixel */
"64 64 164 2 ",
"   c None",
".  c #25002F",
"X  c #250031",
"o  c #280A34",
"O  c #2A2D2F",
"+  c #2C322E",
"@  c #2A2F33",
"#  c #283632",
"$  c #253D31",
"%  c #283438",
"&  c #233E3F",
"*  c #283E3B",
"=  c #3F721E",
"-  c #1D4737",
";  c #07543B",
":  c #0E593A",
">  c #175737",
",  c #1F5435",
"<  c #155D37",
"1  c #1B5D37",
"2  c #17553F",
"3  c #1B573E",
"4  c #155B39",
"5  c #1B5C3A",
"6  c #2C4A2D",
"7  c #32442A",
"8  c #2C502D",
"9  c #355529",
"0  c #355828",
"q  c #284231",
"w  c #214F36",
"e  c #244039",
"r  c #245232",
"t  c #235C3D",
"y  c #2C5F3F",
"u  c #315E37",
"i  c #1B6136",
"p  c #16633C",
"a  c #1C633A",
"s  c #1D6B3D",
"d  c #2A6E2F",
"f  c #396424",
"g  c #3D6D20",
"h  c #2E722D",
"j  c #3D7221",
"k  c #377C27",
"l  c #397E25",
"z  c #33762B",
"x  c #357A28",
"c  c #3C7B2C",
"v  c #226534",
"b  c #256A32",
"n  c #296D31",
"m  c #236238",
"M  c #2E623E",
"N  c #336535",
"B  c #346F35",
"V  c #31673B",
"C  c #336A39",
"Z  c #2A7233",
"A  c #367134",
"S  c #3A7631",
"D  c #40751F",
"F  c #417C1D",
"G  c #1F3445",
"H  c #14354F",
"J  c #15384D",
"K  c #1A3D4D",
"L  c #0F2D51",
"P  c #102E50",
"I  c #163451",
"U  c #153851",
"Y  c #233E44",
"T  c #1E4C46",
"R  c #1E454B",
"E  c #1F494B",
"W  c #1C5342",
"Q  c #1E5F42",
"!  c #1D4451",
"~  c #1F4A50",
"^  c #224346",
"/  c #224D47",
"(  c #20454A",
")  c #214A4B",
"_  c #245245",
"`  c #285743",
"'  c #2A5A42",
"]  c #20524A",
"[  c #285748",
"{  c #214C51",
"}  c #245155",
"|  c #25555A",
" . c #1C6C40",
".. c #1E7240",
"X. c #3F861F",
"o. c #3D8322",
"O. c #3F8028",
"+. c #4C9605",
"@. c #4E9902",
"#. c #4A930E",
"$. c #49910F",
"%. c #4B940F",
"&. c #4C950D",
"*. c #4C940F",
"=. c #4D970E",
"-. c #4C950D",
";. c #468316",
":. c #468617",
">. c #478C16",
",. c #478C16",
"<. c #4A8E12",
"1. c #488D15",
"2. c #488F15",
"3. c #488E15",
"4. c #448419",
"5. c #468619",
"6. c #42801C",
"7. c #44851B",
"8. c #47891A",
"9. c #458B1B",
"0. c #478D1A",
"q. c #458A1C",
"w. c #498D19",
"e. c #488F18",
"r. c #479013",
"t. c #499110",
"y. c #4A9310",
"u. c #4A9211",
"i. c #499113",
"p. c #4A9312",
"a. c #4B9312",
"s. c #4A9213",
"d. c #4B9313",
"f. c #4B9511",
"g. c #4B9413",
"h. c #499115",
"j. c #4A9114",
"k. c #4A9115",
"l. c #499214",
"z. c #4A9314",
"x. c #4A9215",
"c. c #499116",
"v. c #4A9117",
"b. c #4A9217",
"n. c #4B9515",
"m. c #4C9614",
"M. c #4A9214",
"N. c #4D9A13",
"B. c #4F9B15",
"V. c #4D9916",
"C. c #4E9A16",
"Z. c #4E9A15",
"A. c #4A931A",
"S. c #4E9818",
"D. c #509D15",
"F. c #509E16",
"G. c #52A00D",
"H. c #53A416",
"J. c #58AF13",
"K. c #55A618",
"L. c #438722",
"P. c #428423",
"I. c #448920",
"U. c #408128",
/* pixels */
"                                                                                                                                ",
"                                                                                                                                ",
"                                                                                                                                ",
"                                                                                                                                ",
"                                                                                                                                ",
"                                                                                                                                ",
"                                                                                                                                ",
"                                ( { R ) ) R { (                                                                                 ",
"                                ( } ) E R ) { E                                                                                 ",
"                              w Y Y Y ( E R R ( (                                                                               ",
"                          1 s 1     @ ) R R R E ) { (             i s a a s a } )                                               ",
"                          , , , #   % ( R ) ) R R ) (             1 a i 1 a 5 ) ^                                               ",
"                              O       ( R R ) R R E (       1 1 1 i i i 5 i ,     , a ,       ^ ( R ( ( ( ( ) R                 ",
"                                      ( { E R E ) E R       1 s a a i i a ..1     5 ..i       ( { E { E E ) | (                 ",
"                                      Y ^ ( R R R E (       1 a 1 1 i < 5 1 1     , , , e     R E ( R R ( ( (                   ",
"                                          ^ ) ) E ) R       i a 1 a a i                 ^ ) ) ) R R R ) (                       ",
"                                        X Y K K R ) R       1 a i i s i                 ( { E E ) E { } (                       ",
"                                9 0 9 9 9 u M M / R )       3 Q 5 3 Q 3                 ( E R R R R ( (                         ",
"              R { { ( { (       5.f.u.u.u.u.-.#.M ! )       ( { ( R { R           ^ { ) ) R R E ) (                             ",
"              ( { R R ) R       8.N.n.z.z.z.u.u.y I R       R { E ( { (           K ! R R R R R ! K                             ",
"              ( { R R E ( ^   * j ;.D z.z.z.z.3.S V C       R E R R { (         g N C V / R E M C C                             ",
"        ( } ) R ( ( E E R ) } R       w.z.3.z.z.#.+.#.Z a a T R ) R { R       S.D.a.&.#.y R / 8.@.&.S.m.C.n.K.>.                ",
"        ( { ) { { { E R ) R ) )       <.&.*.a.*.z.A.z.i : 4 E R E R } R       3.d.u.+.#.' P R P.f.A.u.z.z.z.C.3.                ",
"        ( { R ^   ^ ( ) E R { (       x k k x k q.u.z.o.x z / R E E R /     6.d.z.c B A A A A w.u.z.z.z.z.z.m.>.5.              ",
"        ^ { R       ( { ) R ) (       4 4 < 4 4 o.f.z.u.f.<.` R ( / R ` A.N.m.d.z.y H T P.@.u.z.z.z.c.c.z.z.z.u.C.C.            ",
"        ( | )       R { R E { (       i a i i i X.&.z.z.z.z._ R R R H / q.f.d.&.&.y L R P.&.w.z.z.z.f.=.f.C.F.C.z.z.            ",
"          ^         ( ) ) R R R (   ( _ W W W W o.&.w.z.u.>.` K / A S c 0.u.0.z h z S S q.u.z.z.z.>.x z z g   D 3.z.            ",
"                    ( { R R R R ) { ) R R R R R c #.z.z.n.>.` K _ 0.@.#.u.f.q.4 4 7.@.=.u.z.z.3.u.>.i 4 >       A.m.            ",
"                    ( { R R R R R R R R R E R R P.+.z.u.f.2.` K _ q.u.A.z.f.q.a i X.u.3.z.z.z.f.f.>.b s ,       S.C.            ",
"                    ( E ) A c c S c S / R ( ( E n z z h h h t 2 t q.#.3.z.u.q.1 i o.f.z.z.z.z.x h h r - 6 = 8.=                 ",
"                    ) { / 8.@.&.-.@.>.) R R R R W < 4 4 4 4 i < v 9.f.z.c.f.q.< < X.f.z.3.a.w.i : 4     7 S.J.<.                ",
"                    ( ! / P.#.3.3.z.q.E R R R E 3 i i i i i i < i 9.u.u.c.f.9.i 1 P.&.3.z.d.3.b < m $   6 5.n.8.                ",
"              1 1 > 5 5 5 y M V 8.f.w.P.l y R / 5 i i i i i o.P.q.c.z.z.w.f.P.W T l #.A.3.z.>.6 $ q +                           ",
"              , b a a i 1 R I ) q.#.z.&.@.y L R 5 i i i i i 9.&.f.z.z.u.f.+.q.( R o.@.f.&.&.a.+ X X o X                         ",
"              5 p i 1 i < ` W t q.f.z.w.a.S C B t W W W 2 3 q.z.c.z.z.>.k k z ( R A o.k l k k f f f f f g                       ",
"        5 b i i i i i i i i 4 v 0.z.3.d.a.a.&.#.y J ) R ^ ) q.u.z.c.u.9.i 4 5 ( R > p < < < i q.=.u.f.H.3.                      ",
"        1 s a a a s a 1 i m < b >.+.#.z.z.z.z.<.y K ) R R E q.f.d.3.f.q.v i < R ( W < 4 4 4 < 9.u.z.m.H.>.                      ",
"          , r 5 5 r 1 i 5 i 5 i A A S >.u.3.d.z.M R ) E R ) 7.f.d.d.f.q.t W W E ( n k x k k k 0.u.w.F 4.                        ",
"                    1 a i i i < R I E >.u.A.u.u.y K ) ) R ) q.a.e.v.&.I.) K ( R R P.@.n.=.=.f.u.m.>.                            ",
"                    > p < i i < T R ` >.z.z.f.f.' H R R R ( I.f.3.A.&.I.] R R R R c +.c.z.>.z.#.&.<.                            ",
"                :.5.l o.k t W _ E R _ 0.u.z.z.z.c S S _ R E I.f.d.A.&.I./ R ] S S x z z 0.f.c.A C C         8.5.5.8.            ",
"              0.K.C.u.&.3.` K ) R R _ w.u.z.3.z.#.+.+.' K / 7.f.d.w.*.I./ K ' +.+.d ; 1 o.&.>./ U K       3.K.m.D.D.            ",
"              4.D.m.A.u.w._ J R R R / 3.#.z.z.z.z.A.>.' K ) q.a.3.z.&.7._ K ` >.c.h : i X.+.2.` ) )       >.f.d.m.d.            ",
"          8.7.g     8.f.z.U.c c _ R T n h 7.a.z.c.z.u.' K / 7.f.z.A.&.I.] K ` u.u.X.o.o.h h h / R / F u.5.3.m.>.                ",
"        >.K.D.      >.D.z.a.+.3.` K ) 4 4 o.#.z.z.z.c.' K / q.f.z.w.*.7.] K ' <.u.n.=.t.b : 1 E R / A.D.C.d.F.>.                ",
"        5.D.A.      >.N.u.z.f.q./ K T i < o.=.3.t.t.u.' K ) I.&.z.z.*.I./ K ` 2.u.c.u.c.n < i E K ) 8.a.u.a.D.3.                ",
"                    b Z d q.f.w.P.P.c / T m d n n n n _ ( ) b n n n d b / ( / n d n d n W E W c P.l d d d n Z n                 ",
"                    > p a q.f.d.&.+.3.) R 2 < 4 4 4 < E ( R 5 4 4 4 4 4 ) ( E 4 < 4 4 4 T ( ) 8.@.t.1 4 4 4  .4                 ",
"                    1 5 v q.u.0.0.c.7.E R 3 i i i i i T R R 5 i i i i 5 E R T i i i i i T R / L.f.0.b i v 5 i i                 ",
"                          b Z b n n b E E 3 i a i i i T R ) 5 i i 1 i 5 E R E i i i i i T R / L.f.3.q.q.o.                      ",
"                          4 p 4 4 4 4 ) R 3 i i i i 1 T ( R 5 i i 5 i 5 T R T 1 5 i i 5 ] { / I.=.n.&.G.&.                      ",
"                          5 m i m i 5 E ( W i i a 1 a T ( ) 5 i i i i 4 E R E a i i i < / ! / P.c.0.q.A.7.                      ",
"                          / E T < i 5 ) ) 3 i i 1 1 1 T R E 5 i i 5 i 5 E ( T < i i a i       m b v ` [ `                       ",
"                          ( { E m i a { { 3 i < i i a / ~ E < i i i i 5 ) { E a 5 i a i       5 s p ! { R                       ",
"                          ) ( E 5 1 < ( ( 3 i 1 a i i T R R 5 i i 5 5 5 E ( ) i i i a 5       i 1 5 T ) E                       ",
"                                          t s i < a <       1 a a T ) )       i a i a i                                         ",
"                                          1 s 1 i i 1       1 s 5 ) { (       1 i i m i                                         ",
"                                                                                                                                ",
"                                                                                                                                ",
"                                                                                                                                ",
"                                                                                                                                ",
"                                                                                                                                ",
"                                                                                                                                ",
"                                                                                                                                "
};
