/* XPM */
static char *f71a489a66a347becdb5815bbc63d2121HGl1Y2xY97CEsAl[] = {
/* columns rows colors chars-per-pixel */
"64 64 20 1 ",
"  c None",
". c #08080D",
"X c #171723",
"o c #1C1C27",
"O c #000334",
"+ c #1D1D39",
"@ c #222232",
"# c #323243",
"$ c #1F0D60",
"% c #232774",
"& c #881422",
"* c #A11324",
"= c #CD2C3F",
"- c #B47D55",
"; c #C9A179",
": c #333892",
"> c #878790",
", c #A0A0AD",
"< c #B5A4A4",
"1 c white",
/* pixels */
"                                                                ",
"                                                                ",
"                                                                ",
"                                                                ",
"                                                                ",
"                                                                ",
"                                                                ",
"                                                                ",
"                                                                ",
"                                         XX                     ",
"                                        X.X.                    ",
"                                       X  ..<                   ",
"                                           <=  *                ",
"                                           .*= *=               ",
"                                          .X.=.@=               ",
"                                          X..*=.*               ",
"                                          ..*1***               ",
"                                          .-*11*1               ",
"                                        ....**=**               ",
"                                        ::..&***&               ",
"                               #########::.;;&&&&               ",
"                              #########oo::..;&&&               ",
"                              ##ooooooooo::...:                 ",
"                             ##ooooooooo%%%:..::#               ",
"                             #ooo   ooo%%:%::.::#               ",
"                             #ooo   %%%%%::%:.::##              ",
"                             #o..   %%%%%:%:%.:%o#              ",
"                             oo..   %%%%%%%..%%oo##             ",
"                             oo;;; ;---%%..%%%#oo##             ",
"                             o;;-$$$---..######ooo#             ",
"                     $$$$$$$$$---OOO---...###oooooo             ",
"         OOO$$$$$$$$$$OOOOOOOO--- %%--%....ooooooo              ",
"          OOOOOOOOOOOOO         %%%%%%%%...oooooo               ",
"                               %%%%%%%%%%%.ooo                  ",
"                              %%%%%%%%%%%%.                     ",
"                             %%%%%%%%%%:::...                   ",
"                            %%%%%%%%%:::::.....                 ",
"                           %%%%%%%%%:::::::.....                ",
"                          %%+%%%%%%%:::::::.......              ",
"                          ++++%%%%%%::::::::......              ",
"                         ++++++.%%%%::::::::....+.              ",
"                        .++++++..%%%%:::::::...++.              ",
"                        .+++++....%%%%::::::...++               ",
"                   ,,,,,..++......%%%%%::%%...+..               ",
"             >,,,,,,,,,,.........% %%%%%%%,,>>>>>               ",
"            >,,>>>>>>>>>.......%%    %%%%,,>>>>                 ",
"            >>.,>>>>>>>>>>...%%         ,,>>>                   ",
"            >>>.                      ,,,>>                     ",
"             >>                      ,,>.                       ",
"              >                      ,>.                        ",
"                                     ,>                         ",
"                                     ,>                         ",
"                                     >                          ",
"                                                                ",
"                                                                ",
"                                                                ",
"                                                                ",
"                                                                ",
"                                                                ",
"                                                                ",
"                                                                ",
"                                                                ",
"                                                                ",
"                                                                "
};
