/* XPM */
static char *_a96b27c87b64757ea004c223ba079d4xnz9MbU0NOeLX08X[] = {
/* columns rows colors chars-per-pixel */
"45 64 5 1 ",
"  c None",
". c #EB4200",
"X c DarkOrange",
"o c #FFD400",
"O c #F0EFE8",
/* pixels */
"                                             ",
"                                             ",
"                                             ",
"                                             ",
"                         .                   ",
"                        ...                  ",
"                         ...                 ",
"                          ..                 ",
"                  ..       .                 ",
"                .....                        ",
"                .....                        ",
"               ......   XX                   ",
"               .....   XXXX                  ",
"               ....   ..XX..                 ",
"                ..   ........                ",
"                     .XXX....                ",
"                     ..XXX...                ",
"                      ..XX...                ",
"                     .......                 ",
"                    ......X.                 ",
"               X..  .....XXX                 ",
"              XX...  ...XX                   ",
"              XXX..   ..XX                   ",
"              XXX..   ...XX                  ",
"              XXXX.. ...XXXX                 ",
"               XXXX...XXXXXXX                ",
"                XXX.XXXXXXXXX                ",
"                 XXXXXooXXXXX                ",
"                 XXXXooooXooX                ",
"                 XoXXoooXoooo                ",
"                 ooXoooooooo                 ",
"                  ooooooooo                  ",
"                   oooooooo                  ",
"                   Xoooooo                   ",
"                   Xoooooo                   ",
"                  XoooooooX                  ",
"                 XooooooooX                  ",
"                XoooooOOoooX                 ",
"                oooooOOOOooo                 ",
"                XoooOOOOOoooo                ",
"                 XooOOOOoooooo               ",
"                  XoOOOOoooooo               ",
"                   ooOOOOoooooo              ",
"                   XoOOOOOooooX              ",
"                    XoOOOOOooX               ",
"                   ooOOOOOOoXX               ",
"                 ooooOOOOOOoX                ",
"                 oooOOOOOOoX                 ",
"                oooOOOOOOOoo                 ",
"                ooooOOOOOoooo                ",
"                oooooOOOooooo                ",
"                ooooOOOOOoooo                ",
"                 ooOOOOOOOoo                 ",
"                  oOOOOOOOo                  ",
"                                             ",
"                                             ",
"                                             ",
"                                             ",
"                                             ",
"                                             ",
"                                             ",
"                                             ",
"                                             ",
"                                             "
};
