/* XPM */
static char *a2c99f99d8be46d3b08ad5ea913437ed7kqXZ9GIfYclcseQ[] = {
/* columns rows colors chars-per-pixel */
"45 64 5 1 ",
"  c None",
". c #EB4200",
"X c DarkOrange",
"o c #FFD400",
"O c #F0EFE8",
/* pixels */
"                                             ",
"                                             ",
"                                             ",
"                                             ",
"                                             ",
"                                             ",
"                                             ",
"                                             ",
"                                             ",
"                                             ",
"                                             ",
"                                             ",
"                                             ",
"                                             ",
"                                             ",
"                                             ",
"                                             ",
"                                             ",
"                                             ",
"                                             ",
"                                             ",
"                                             ",
"                                             ",
"                                             ",
"                                             ",
"                                             ",
"                        ..                   ",
"                    .. ....                  ",
"                   .........                 ",
"                   .........                 ",
"                    .. .....                 ",
"                      .......                ",
"                    .........                ",
"                   ....XX...                 ",
"                   ...XX....                 ",
"                     ....X...                ",
"                    ....XXX..                ",
"                   ..XX.XXX.                 ",
"                  ..XXXXXX..                 ",
"                  .XXXXXXXXX.                ",
"                  ..XXXXXoXXX.               ",
"                   .. XXoooXXX               ",
"                       XooooX                ",
"                        XoooX                ",
"                     XooooooXX               ",
"                 oX  ooooooooX               ",
"                oooXXooOOooooo               ",
"               oooooooOOOOoooo               ",
"               oooooooOOOOooo                ",
"               XoooooOOOOooo                 ",
"                oooooOOOooo                  ",
"                 ooOOOOooooo                 ",
"                 oOOOOOOoOoo                 ",
"                ooOOOOOOOOOoo                ",
"                oooOOOOOOOOoo                ",
"                 oooOOOOOOoo                 ",
"                  oOOOOOOoo                  ",
"                                             ",
"                                             ",
"                                             ",
"                                             ",
"                                             ",
"                                             ",
"                                             "
};
