/* XPM */
static char *eb6ddeccf1364535cf29f28d4fca963dYYYNnVqNSXsZLdho[] = {
/* columns rows colors chars-per-pixel */
"45 64 5 1 ",
"  c None",
". c #EB4200",
"X c DarkOrange",
"o c #FFD400",
"O c #F0EFE8",
/* pixels */
"                                             ",
"                                             ",
"                                             ",
"                                             ",
"                                             ",
"                   ..                        ",
"                  ..                         ",
"                                             ",
"                                             ",
"                        ...                  ",
"                        ....                 ",
"                         ....                ",
"                           ..                ",
"                   ...                       ",
"                 ......                      ",
"                .......                      ",
"                ......    ...                ",
"               ....      .....               ",
"               ...      ......               ",
"                        ..XX...              ",
"                        ..XXX..              ",
"                      ...XXXX..              ",
"                  .. ....XXX...              ",
"                 ........X....               ",
"                ..XX....X...                 ",
"                .XXXXX..XX.                  ",
"                ..XXXXXXXX                   ",
"                ...XXXXXXX.                  ",
"                .....XXXXXXX.                ",
"                 .....XXXXXXX                ",
"                  . ..XXXXXXXX               ",
"                     ooXXooXXXX              ",
"                    oooXooooXXX              ",
"                    ooooooooXXX              ",
"                     oooooooXXX              ",
"                     ooooooXXXo              ",
"                 ooXX oooooXXo               ",
"                oooooXoooooXoo               ",
"                ooooooooooooo                ",
"               oooooOooooooo                 ",
"               XoooOOOooooo                  ",
"               XoooOOOoooooo                 ",
"                oooOOOOooooo                 ",
"                XooOOOOooOOoo                ",
"                 XooOOOoOOOOoo               ",
"                 ooooOOOOOOOoo               ",
"                oooOoOOOOOOoo                ",
"                ooOOOOOOOOOoX                ",
"                ooOOOOOOOOoX                 ",
"                 ooOOOOOOOoo                 ",
"                ooooOOOOOoooo                ",
"                oooooOOOOoooo                ",
"                ooooOOOOOOoo                 ",
"                 ooOOOOOOOoo                 ",
"                  ooOOOOOOo                  ",
"                                             ",
"                                             ",
"                                             ",
"                                             ",
"                                             ",
"                                             ",
"                                             ",
"                                             ",
"                                             "
};
