/* XPM */
static char *_575ca65850a4faf9e1f04297a586e54VHtftKO3Ud8VsLDV[] = {
/* columns rows colors chars-per-pixel */
"45 64 5 1 ",
"  c None",
". c #EB4200",
"X c DarkOrange",
"o c #FFD400",
"O c #F0EFE8",
/* pixels */
"                                             ",
"                                             ",
"                                             ",
"                                             ",
"                                             ",
"                                             ",
"                                             ",
"                    ..                       ",
"                   ..    ..                  ",
"                        ....                 ",
"                         ....                ",
"                          ...                ",
"                           .                 ",
"                                             ",
"                  ..                         ",
"                 ....                        ",
"                ......                       ",
"                ..........                   ",
"               ........XX..                  ",
"               .......XX....                 ",
"                ...XX.......                 ",
"                 .XX .......                 ",
"                     ..XXX..                 ",
"                    ..XXX...                 ",
"                    .XXX.....                ",
"                     .XXXXX...               ",
"               .     ..XXXXX..               ",
"              ...     ...XXX.                ",
"             .....    ..XXX.                 ",
"             ..XX..  .XXXX                   ",
"             .XXXX..XXXXX.                   ",
"             XXXXXXXXXXXX.                   ",
"             XXXXXXXoooXXX                   ",
"             XXXXXXoooooXXX                  ",
"              XXXoXXooooXXXX                 ",
"               XoooXXooooXXX                 ",
"               XooooXoooooX                  ",
"               Xooooooooooo                  ",
"                Xoooooooooo                  ",
"                  Xooooooo                   ",
"                  Xooooooo                   ",
"                 Xooooooooo                  ",
"                XooooooOOoo                  ",
"                ooooooOOOOoo                 ",
"                ooooOOOOOOoo                 ",
"                oooOOOOOOOoo                 ",
"                XooOOOOOOooo                 ",
"                 XooOOOOoooX                 ",
"                  oooOOOOoX                  ",
"                 oooOOOOOO                   ",
"                 ooOOOOOOOo                  ",
"                ooooOOOOOooo                 ",
"                oooooOOOoooo                 ",
"                ooooOOOOoooo                 ",
"                 ooOOOOOOoo                  ",
"                  oOOOOOOo                   ",
"                                             ",
"                                             ",
"                                             ",
"                                             ",
"                                             ",
"                                             ",
"                                             ",
"                                             "
};
