/* XPM */
static char *caf1af5c1982437ab7587d30e6aeb061DZvCqD0srlAR3wfi[] = {
/* columns rows colors chars-per-pixel */
"34 30 12 1 ",
"  c None",
". c #33323D",
"X c #407769",
"o c #B43B6A",
"O c #DE5050",
"+ c #639D6D",
"@ c #F18770",
"# c #EED878",
"$ c #B36AA0",
"% c #E39BBA",
"& c #F1C5CC",
"* c white",
/* pixels */
"                                  ",
"                                  ",
"                                  ",
"                                  ",
"                                  ",
"                                  ",
"                  ....            ",
"                ..%%%%.           ",
"               .%%%%%%.           ",
"              .%%%&%..            ",
"             .%%%%%%$.            ",
"             .%&&%%%$.            ",
"            .%%&&%%%%$.           ",
"            .%%%%%&%%$.           ",
"           .%%%%%%%%%$..          ",
"         ...$%%%%%%%$.....        ",
"       ..%%%%%%%%%%%%%%%%%..      ",
"     ..%&%%%.........$%%&%%%..    ",
"    .%%%%%%.OO@@O@OOO.$%%%%%%%.   ",
"    .%%%$$%.O.......O.$$$$$$$$.   ",
"     .....%.ooooooooo.$$......    ",
"         .%%.........$$$$.        ",
"         .%%%%%%%%%%%%$$$.        ",
"         .$$$$....$$$$$$$.        ",
"         .....*###........        ",
"         .++++XXXXX++++XX.        ",
"          .X..........XX..        ",
"          .$$.        .$$.        ",
"           ...         ...        ",
"                                  "
};
