/* XPM */
static char *_2f59acf87634131ccfe3e5d1eb087f9H3ZFY03kJrPsMUpp[] = {
/* columns rows colors chars-per-pixel */
"64 64 204 2 ",
"   c None",
".  c gray2",
"X  c gray7",
"o  c #282928",
"O  c #383725",
"+  c #353533",
"@  c #3C3C3B",
"#  c #440400",
"$  c #480900",
"%  c #580000",
"&  c #581718",
"*  c #451000",
"=  c #6F0000",
"-  c #630505",
";  c #750000",
":  c #7D0000",
">  c #7D0B00",
",  c #711D04",
"<  c #641614",
"1  c #6F140E",
"2  c #4B2200",
"3  c #4E2D18",
"4  c #722517",
"5  c #722618",
"6  c #782A1B",
"7  c #513220",
"8  c #572E26",
"9  c #652B25",
"0  c #3F4136",
"q  c #444535",
"w  c #4B4D37",
"e  c #42423D",
"r  c #444936",
"t  c #52553A",
"y  c #55583C",
"u  c #454543",
"i  c #4C5C45",
"p  c #4F5140",
"a  c #5A5B46",
"s  c #585849",
"d  c #5A5954",
"f  c #615B4C",
"g  c #625950",
"h  c #6B4E46",
"j  c #61644B",
"k  c #61684F",
"l  c #626951",
"z  c #6B6B53",
"x  c #69685C",
"c  c #737157",
"v  c #73735A",
"b  c #766A5F",
"n  c #6D6D63",
"m  c #756D64",
"M  c #7E7C64",
"N  c #737366",
"B  c #890300",
"V  c #950000",
"C  c #990000",
"Z  c #9B0A00",
"A  c #891000",
"S  c #9C1700",
"D  c #A30000",
"F  c #AB0B00",
"G  c #B60000",
"H  c #B90000",
"J  c #B50D00",
"K  c #A51E00",
"L  c #9B291A",
"P  c #942216",
"I  c #A82504",
"U  c #BD3507",
"Y  c #A62B15",
"T  c #AA331C",
"R  c #B82D0D",
"E  c #963425",
"W  c #902D22",
"Q  c #AA3727",
"!  c #BC3A24",
"~  c #AD3F31",
"^  c #C60000",
"/  c #CB0000",
"(  c #DA0000",
")  c #D40000",
"_  c #D31D00",
"`  c #DA1E00",
"'  c #DF1F12",
"]  c #CC1E00",
"[  c #CD2100",
"{  c #D72100",
"}  c #C72D14",
"|  c #DD241A",
" . c #D52415",
".. c #C6341D",
"X. c #D0311C",
"o. c #E62A12",
"O. c #E7280F",
"+. c #CB3E38",
"@. c #D33126",
"#. c #E43F31",
"$. c #95453B",
"%. c #BB4939",
"&. c #BA432E",
"*. c #E44032",
"=. c #964D46",
"-. c #95524B",
";. c #9E5D5A",
":. c #B64645",
">. c #B8564A",
",. c #B35A52",
"<. c #BB5956",
"1. c #AF5851",
"2. c #BB645B",
"3. c #A85E6B",
"4. c #996B6C",
"5. c #916D6F",
"6. c #A4656F",
"7. c #B86B65",
"8. c #BA736C",
"9. c #B97470",
"0. c #BC7C78",
"q. c #BF6F78",
"w. c #C9564B",
"e. c #D55251",
"r. c #E3575B",
"t. c #C1695E",
"y. c #CB5C63",
"u. c #C56B67",
"i. c #C7746B",
"p. c #C16C75",
"a. c #C37C76",
"s. c #C37F7A",
"d. c #D97370",
"f. c #F87A7B",
"g. c #838269",
"h. c #848574",
"j. c #8F8D76",
"k. c #878B7C",
"l. c #898C7D",
"z. c #868779",
"x. c #908F78",
"c. c #918172",
"v. c #93927D",
"b. c #8F907A",
"n. c #BD807D",
"m. c #C4837D",
"M. c #917E87",
"N. c #B37783",
"B. c #C77C84",
"V. c #FF7E80",
"C. c #8D9282",
"Z. c #949683",
"A. c #9B9A85",
"S. c #9C9C89",
"D. c #8E929F",
"F. c #898F80",
"G. c #B38E8D",
"H. c #A2A38E",
"J. c #8E9AA8",
"K. c #8F98A6",
"L. c #929AA7",
"P. c #AF91A4",
"I. c #AE95AA",
"U. c #B092A5",
"Y. c #B194A8",
"T. c #91A1AF",
"R. c #B1A9BB",
"E. c #B0A7B9",
"W. c #C68682",
"Q. c #C78A8A",
"!. c #C49491",
"~. c #CA9998",
"^. c #F88485",
"/. c #EE9C9E",
"(. c #F18E97",
"). c #CE9DB1",
"_. c #CBB4B4",
"`. c #C9BABC",
"'. c #C7B3B4",
"]. c #DCB9BC",
"[. c #CCA6A6",
"{. c #FAB5B8",
"}. c #E9A9AC",
"|. c #AEB5CD",
" X c #B2B3C8",
".X c #ADBCD3",
"XX c #A7BBD3",
"oX c #CABDC0",
"OX c #A6C3DB",
"+X c #D5D6DA",
"@X c #EED2D7",
"#X c #EDDADF",
"$X c #EBD2D8",
"%X c #D4DCE0",
"&X c #EBDCE1",
"*X c #F0DCE2",
"=X c #DEFCFF",
"-X c #DFF3F9",
";X c #EFE6EB",
":X c #F1E9EF",
">X c #F1EAF0",
",X c #E3F3F9",
"<X c #E9F2F9",
"1X c #E3FCFF",
/* pixels */
"                                                                                                                                ",
"                                                                                                                                ",
"                                                                                                                                ",
"                                                              u u                                                               ",
"                                                              u @                                                               ",
"                                                              u u                                                               ",
"                                                              u u                                                               ",
"                                                              @ @                                                               ",
"                                                              o o                                                               ",
"                                                              + +                                                               ",
"                                                              + +                                                               ",
"                                                              @ @                                                               ",
"                                                              o +                                                               ",
"                                                              + @                                                               ",
"                                                            o X X o                                                             ",
"                                                          @ q w q w q                                                           ",
"                                                        q t y y y y t q                                                         ",
"                    x                             r e w y t t t t t y y w e e                           8 n                     ",
"                    z.l.j 7 o u 0 u e @ u 0 p a a j j f j j j j j j j j j j j a d i 7 u e e e e e o e j j.k.                    ",
"                      c.Z.Z.k.z c l z z l z z z z z z z z z z z z z z z z z z z c z k z z z l c c h.v.Z.c.                      ",
"                      V 9 n l.H.Z.j.v.j.x.x.x.j.j.j.j.j.j.j.j.j.j.j.j.j.j.j.j.j.j.j.j.j.b.v.j.Z.H.z.n 9 B                       ",
"                        7.B A & b F.z.k.k.k.k.k.F.F.k.F.k.F.F.F.z.l.k.k.k.F.F.k.F.k.k.k.k.z.l.b & > V ,.                        ",
"                            a.T B : : : > ; - ; = = = = = = ; = = = ; = = = = = = = ; : : : > V T 7.                            ",
"                                          [ e.U.P.U.U.U.P.P.I.N.N.I.P.P.U.U.U.U.I.e.U                                           ",
"                                            r.R.R.E.E.E.R.R. XG.G. XR.R.R.E.E.E. Xr.                                            ",
"                                            o.#.*.#.*.*.#.( ( ( ( ( ( *.*.*.*.*.*.o.                                            ",
"                                            f.<X<X<X<X<X<X4.C W W C 6.<X<X<X<X<X<Xf.                                            ",
"                                            f.1X-X=X1X1X=X4.H L L H 5.1X1X=X1X=X1Xf.                                            ",
"                                          H f.,X-X,X-X,X-X4.H Y L G 4.-X-X-X-X-X1Xf.G                                           ",
"                                      2.<.&.X.!.!.!.!.!.!.1.F Y Y F 1.~.!.!.!.!.!.X.&.<.2.                                      ",
"                s u                   2.>.%.^ 8.9.9.9.8.9.1.C I I D 1.9.8.9.8.9.7.^ %.>.>.                  u d                 ",
"                d C.w o               3 2 3 O * # # # * # 2 7 3 3 7 2 # $ # # # $ O 3 2 7               O r F.x                 ",
"                  m S.j.v j w a a i s k l l k l l l l l l l k j k k k k l l l l l l k l k a y a a w j c x.S.m                   ",
"                  <.; m C.Z.H.g.g.M 5.M M M M M M M M M M M M M M M M M M M M M M N M M M g.M 5.h.H.A.b.N ; 2.                  ",
"                    ,.W ; h x l.S.S.Z.S.S.S.S.S.S.S.S.S.S.S.S.S.S.S.S.S.S.S.S.S.S.S.S.Z.S.A.S.A.l.x h = W 1.                    ",
"                          E V 1 & & < < & # % % % % % % % % % % % % % % % % % % % % % & < & & & 1 C E                           ",
"                              2.I Q T &.R :.6.3.3.3.3.3.6.3.3.3.3.3.3.3.6.3.3.3.3.6.:.R ~ T Q I 2.                              ",
"                                        / (.XX.XXXXX.XXX.X.X.X.X.X.X.X.XXXXX.XXX.XOX(.]                                         ",
"                                        ! { _ _ _ _ _ _ _ _ _ _ _ _ _ _ _ _ _ _ { ` ` !                                         ",
"                                        ) (.&X@X@X@X@X@X@X@X@X@X@X@X@X@X@X@X@X@X@X*X(./                                         ",
"                                        ^ {.1X=X=X1X=X1X=X=X1X1X1X1X=X=X1X1X=X1X=X=X{.^                                         ",
"                                        / {.1X1X<X1X1X1X1X1X1X1X1X1X1X1X1X1X1X1X1X1X{./                                         ",
"                                    2.8...d.`._._._._._._._._._._._._._._._._._.'.`.d...i.2.                                    ",
"                                    %.u.t./ m.a.s.m.s.a.a.m.a.a.a.a.a.s.a.a.m.m.a.m.) t.t.%.                                    ",
"              n x .                 6 , , 4 4 4 4 4 4 5 4 4 4 4 5 5 4 4 4 4 4 4 4 4 4 , , 6                 . x x               ",
"                h.A.z O O O q q q w i y i i i i i y i i i i i i i i i i i i i a i i i i i i q w r q O O @ x A.h.                ",
"                E b A.A.v.j.v v v v c c c c c c c c c c c c c c v c c c c c c c c c c c c c c c v v j.x.H.Z.m E                 ",
"                >.Z < 8 h.l.S.S.S.S.S.S.S.S.S.S.H.S.S.S.S.S.S.S.S.S.S.S.S.S.S.S.S.S.S.S.S.S.S.S.S.A.k.h.8 < C >.                ",
"                    :.Q B ; f g g g g d g g d f f g g g d g g d g g g g g g g g g d f d d g g g g f : B I ,.                    ",
"                          u.P C C C C C C C V C C C V V V C C C C V C C V V V V C C C C C C C C C P u.                          ",
"                                      _ ).XX|.|.|.|.|.|.|.|..XP.P.XX|.|.|.|.|.|.|.|.XX).`                                       ",
"                                      } y.q.q.q.p.p.p.p.p.B.Q.u.u.Q.W.p.p.p.p.p.p.p.q.y...                                      ",
"                                      { ^././././././././.X.^ / / ^  ././././././././.^.{                                       ",
"                                      ) ;X=X1X1X1X=X1X1X=X5.C W W C 5.=X1X1X1X1X1X1X=X&X)                                       ",
"                                      ( *X1X,X1X1X1X1X1X=X4.H L Y H 5.1X1X1X1X1X1X1X=X*X(                                       ",
"                                      ^ ].+X+X+X+X+X+X+X+X;.J Y Y J ;.+X+X+X+X+X+X+X+X]./                                       ",
"                                %.i.>.] w.Q.m.W.W.W.W.W.Q.2.D Y T D 2.Q.W.W.W.W.W.m.Q.w.[ %.i.w.                                ",
"                                =.E A C L -.=.=.-.=.=.=.-.W B A A B W -.=.-.-.-.=.=.-.W C A =.$.                                ",
"                                T <.J.K.L.L.L.K.5.J.K.K.L.K.T.M.M.T.K.K.K.K.K.5.K.J.L.L.J.J.<.S                                 ",
"                                ! o.| o.+.@.| | } | ' @.+.O.|  . .| ' +.@.| | } | | | +.o.| o.!                                 ",
"                                H f.>X;X~.&X:X&X~.:X>X$X[.>X>X].].>X>X[.$X;X;X~.&X:X&X~.;X:X^.H                                 ",
"                                R d.oX`.0.'.oX'.N.`.`.[.W.oXoX~.~.oXoXG.[.`.`.0._.oX'.0.`.`.d.R                                 ",
"                                                                                                                                ",
"                                                                                                                                "
};
