/* XPM */
static char *_d7bb0a591524ac3e36ea92059b48a85E0UycD2bIRHfiYWq[] = {
/* columns rows colors chars-per-pixel */
"64 64 67 1 ",
"  c #1B1C1E",
". c #1C1D1F",
"X c #1C1D20",
"o c #1E1E21",
"O c #1E1F22",
"+ c #1F2023",
"@ c #202124",
"# c #222326",
"$ c #232427",
"% c #232528",
"& c #26272B",
"* c #25272C",
"= c #27282C",
"- c #27292C",
"; c #27282E",
": c #292B2D",
"> c #2B2D2F",
", c #2C2E30",
"< c #2C2E33",
"1 c #2D2E33",
"2 c #2F3136",
"3 c #303237",
"4 c #313237",
"5 c #33353A",
"6 c #32343C",
"7 c #33353D",
"8 c #34353D",
"9 c #34353F",
"0 c #35363E",
"q c #35373E",
"w c #36373F",
"e c #353640",
"r c #363740",
"t c #373741",
"y c #363840",
"u c #3A3B45",
"i c #3A3B46",
"p c #3B3C46",
"a c #3B3C48",
"s c #3C3D49",
"d c #3D3F4B",
"f c #3E3F4A",
"g c #3F3F4C",
"h c #3E3F4D",
"j c #3F404C",
"k c #3F404E",
"l c #3F414F",
"z c #40414D",
"x c #41414E",
"c c #42424F",
"v c #404150",
"b c #414150",
"n c #434453",
"m c #444453",
"M c #464655",
"N c #474856",
"B c #484957",
"V c #494957",
"C c #494958",
"Z c #4A4A58",
"A c #4A4B59",
"S c #4B4B59",
"D c #4B4B5A",
"F c #4C4C5C",
"G c #4E4D5D",
"H c #4E4E5D",
"J c #4E4E5E",
/* pixels */
"++++OOO ..            O     X  X              X     O   OX.o@o@@",
"++O@%@@&&:;;;;;;;;***;*****;*&****;;*;;*;;;;;%;**;&;****$@&@o@@o",
"+OO@:<,<6rr0w0000r0yrrrrt0ret000rr0r0rrey000reer0r6rt005<:<;OOO@",
"+@@&<220ffhhjhfjfhzjjlhzkkkhbzzzhvhkhzhhzjjnjljlkhlhbzzfw444:@@O",
"O@:<>3rpjjjjhhhfjbBDDBBDBBBVVVDNBDDDDNDNSDNNNDDNzzBDVVDNf0py2;@+",
"O&<320uhjbnbnmnnzmDFFFFFGGGGDGDJDGDDGGGGSSFJFFFDmBDGGGDDbzfy5>@+",
".@>30pfzlnDDDDDDDDJJJJFFGDGDGDDGGGDDGGDDJJJJFFDFBDDGDGDDDMj02>$O",
"O$<0ujzblbBDDDDDSSBSSNDDDDDDDDDDDDBDDDDDBSNSNJFSDGGVGDDDDDnp0<$.",
"O;6pasjlbbnnnnnnnnnnnnnnnnnnnnnnbmmbnnnnnnnnnnnMJFFFGDnnDDJnf0= ",
" ;yfsjjbblljjjjjljjjjjjljljjjljjzkzzljjjjljjljjjNFSSZDnnJFJSj0; ",
" *rhhhbljblbblllblnjblbjblblblblblbkjblblblbbljblnjNSJDDDDJBj0& ",
" ;yjjblbblbjlblblljblblblbjblbjbhbbzblbjblbllblljjjjNSFJDJJmj0= ",
" ;0hjlblblblblblbjblblnjblblbjblbzlblblbjbjllblbbjlbbBDSDDJNby; ",
" ;rflblblbjbjbjblblblljbjbjblblbljblblblblnjblljlbblhbMSDJDDzy* ",
" ;rfllblbjbllbblllblbjblblnjblnjfshbjblblblbjblnlblblbbmDJGMhr*X",
" :0hjblljnlbjjlbjnjblblbjbllllljfshjblbjbjblblbjblbjbzkzDDJDjr* ",
" ;yfjbbjbjbljsjlblblbjblbjblbjbjjjblbjblbllljblljllbbljnSFJNb0> ",
" ;0fjblblbljssjblbjblblblblbjnlblbjblblblbljblbjnjbljblnSFFBjw% ",
" ;0hllblllbljlblbjblblbjllblllblblllblbjbjssjljnjbjbbljnSFFBjy;X",
" ;0jlbjbjnjblllblblbjblbjnjblbjblbjnjblbljshjbblnlbllljnBDFFje* ",
" :rfhblbblblbjblblbjnlblblblblbjblblblblbljjlbjbjljllblbhDDJjr;X",
" *rhblbllljblblbjblbjljblblbjblblbjblbjblblbblblblnjblljhbBBjy* ",
" *rhjbjbnjblblblnjblnjblblblnjblblnjbjbllbbljllblblbjblnzbbbhr*X",
" ;rhllbljblbjblblllljblbjjjblllljblllblbljlbnjblbjblblbjhblhfr* ",
" ;rfhbblbjbljlblbjblbjblfsjlblbjblblblbjssjblbjbjblbjblbbzbhhr; ",
" ;0hlllblblbhhlblblblbljsslllbjnlblblbljssllblblnlblblbjlblbfr; ",
" ;rhlblbblbjssjlblbjllbljjblbjljbjllblbljjlllbjbjllblblbblbhj0; ",
" ;rfjlbjlbljsfjnlljnjnjblblblblnjnjjlblbblbjblblbljjblbljbllj0; ",
" ;rzzblbblbjjjbjbjbjblblblblblbjljssjlbllblnjblbljssjblblbbjhr: ",
" ;0hhjbljblblblblblblbjblbjbjblbljsfjblbbjbjblbjbjssjlblblbjfr* ",
" =0fzblbblblblblbjnlbjllbjblblblbljjblbllbjnlblblbjllblblbbhhr; ",
" ;rfhbbllbjblblblbjljnlblblblbjblblblbjbblljblblblblbjblbjbjf0; ",
" :rfjlblblblljblblbjblblnjblblbjblbjblbjlbjblblbjllblbjblbblhr; ",
" *rflblblblblnjbjblblbjbjblbjblblblblbjnblblnjblnjblblblnjllhr; ",
" *rhhbbjblblblblnjblbjllllbjnjblblblbjlljblbjblbjbjbjllbjbllj0; ",
" ;rhlblbjbjjjblblllljnjnlblblllllbjblblbblbjllbjnlblnjblllbjj0; ",
" ;rfllblnjfsjlblbjblblbjblblblbjbjblbjnjjblblblljllbjbjblbbjhy; ",
" ;0hlblbljssjblblblbjblbjbjblbjnlblllbllblblbllhblblblblblbjf0; ",
" ;rhjlblblhfbjljblbjbllbblnjbjljblnjblbllblblhfsjblblnjblbbjjw; ",
" ;rflblblblllblnlljnlbljjblllblnjbjblbjbbjblbjuajlblbjllblzjh0; ",
" ;tzzbbbbjblbjbjbjbjblffjlllblbjnlblllbjblbjljssjbjnlljbjbblhr*X",
" ;0hhzbhlblbjnlblblbljssjnlbjblbjljbjnlblbjnblffllljbjnlblllhr* ",
" =0fjbjbllblllblbjnlblhfbjbjblblnjblbjbjbjllbljjlblblblblbljj0;X",
" ;rfllbljnjblbjblbjllblllblblbjbjblblblblblblllnblblbjbjbjblfr* ",
" *rfjblbblblljblnjblblblnjllblbjllllblblblblbjbjjblbjblblbbhhr: ",
" *rfjlbllljblnjbjblblbjbjblbjblblbjnjblljblbjnlbblbjblblblbzfr* ",
" *rfshjlnjblblblllbjbjblblblnjblblbjblbjnlbjllbljnlblblblbbhhr; ",
" :rhufjbjblbjbjblblblblblbjblllljblblbjnjllblbjbljblbjblbjbjf0; ",
" ;rfsfhblbjblbjbnjllbjbjblbjblbjblljblnjblbjblbllbjblbjblbllhr;X",
" *rfuahjbhblblbljblblblblbjnlbjnjblnlljbjblblbjbblblblblnjljhr* ",
"X;rfafhbbbjblblbblblbjnlbjllbjljblbjbjblnjblbjbllllbjllbjbnjh0, ",
" *rsuflbblblblbjlbjblbjllblblblnlblblblblllljnjbbjnjnjbllljjfe* ",
" ;rfsshblbjnjblbbjnlbjblblblbjbjbjllllbjbjblbjbllblbjbjbhhhufr* ",
" ;rfushhblljblnjlbjllblbjblbjnlbjnlbjnlblblblblbbjblblblvhfafr* ",
" ;rhsusfjllbjbjlblblblbjnlbjllblblbjbjbjblbjblbllbjllnjbbhfahr, ",
" *0uusuajnblblbljblbjblbjllblbjbjblblblblljnjblbblnjbjllkkauu6*X",
"X%<rufusjlllblbllblbjbbllblbblbznjblblbllbhbjbblvvvvvvvhfuhu0<$X",
"O@>46aufjljjlblbblblbllbbjblhblblllbjbjbbzbbbjlbvkkhkkkhfau04:@O",
"O@,24rufsssfjbblbblblblblblbbbbbblbllbblbbbklblbbkfufaasfur23<&O",
"O&;<,20spsupjbljhzhzjllhljbjljhzjlllljllhbhhljlhkffuuafuu02,<:OO",
"+@@=,246ufsfhhffffhjfhhfhhhfjhffhfhfhhhhhffhfkkffkfffffu033<;@@@",
"OO.@:>><0rryrrrrr00rrr0rrrrr000y0r00rrr0r0rr0000twwwrrrr<:>:@.O@",
"O@+++;%+**;;;;;;;=;;;;;;;**:;;;;:;;;;;:*&::;;;;;;;;;&*:&&@$$@o@@",
"@@O@OO+O O                                             .OO.@o@@."
};
